<svg width="232" height="42" viewBox="0 0 232 42" fill="none" xmlns="http://www.w3.org/2000/svg">
<path fill-rule="evenodd" clip-rule="evenodd" d="M62.7871 28C57.8458 28 54 24.4603 54 19.935V19.8793C54 15.331 57.8699 11.7307 62.8478 11.7307C65.6275 11.7307 67.7487 12.5583 69.62 14.4132C69.7967 14.5883 69.7958 14.8578 69.6178 15.0319L67.3092 17.2902C67.2126 17.3847 67.0913 17.4331 66.9501 17.4334C66.8089 17.4337 66.6873 17.386 66.5902 17.292C65.5087 16.2459 64.4445 15.5934 62.8175 15.5934C60.3065 15.5934 58.6642 17.6325 58.6642 19.8235V19.8793C58.6642 22.1873 60.3592 24.1374 62.9694 24.1374C64.5488 24.1374 65.7049 23.472 66.7769 22.4622C66.8723 22.3724 66.9894 22.3264 67.1261 22.3252C67.2627 22.324 67.3808 22.3677 67.4781 22.4558L69.6956 24.4631C69.8836 24.6333 69.8928 24.9086 69.7165 25.089C67.7925 27.0587 65.7331 28 62.7871 28ZM75.5994 14.0593C75.9973 13.5562 76.4702 13.1056 77.0278 12.7379C78.1438 12.0021 79.4427 11.7051 80.8068 11.7589C81.0713 11.7694 81.2798 11.9692 81.2798 12.2122V15.7809C81.2798 16.0308 81.0578 16.2346 80.7855 16.2346H80.5729C79.559 16.2346 78.5502 16.4399 77.7045 16.9714C76.0653 18.0017 75.5994 19.8877 75.5994 21.6078V27.2118C75.5994 27.4616 75.3773 27.6655 75.1051 27.6655H71.4295C71.1573 27.6655 70.9352 27.4616 70.9352 27.2118V12.4911C70.9352 12.2412 71.1573 12.0374 71.4295 12.0374H75.1051C75.3773 12.0374 75.5994 12.2412 75.5994 12.4911V14.0593ZM89.7621 28C86.9315 28 84.269 26.8885 82.5412 24.8092C81.3741 23.4046 80.7623 21.6997 80.7623 19.935V19.8793C80.7623 18.096 81.384 16.372 82.5627 14.9526C84.2998 12.8606 86.973 11.7307 89.8228 11.7307C92.6384 11.7307 95.2906 12.8176 97.0278 14.8746C98.2277 16.2952 98.8529 18.0285 98.8529 19.8235V19.8793C98.8529 21.5642 98.2912 23.197 97.2237 24.5688C95.4925 26.7934 92.7208 28 89.7621 28ZM132.313 13.4765C133.497 12.3551 134.958 11.7307 136.831 11.7307C140.827 11.7307 143.036 14.2722 143.036 17.8161V27.2118C143.036 27.4616 142.814 27.6655 142.542 27.6655H138.866C138.594 27.6655 138.372 27.4616 138.372 27.2118V18.8477C138.372 17.0418 137.545 15.7049 135.434 15.7049C133.356 15.7049 132.313 17.1058 132.313 18.9035V27.2118C132.313 27.4616 132.091 27.6655 131.819 27.6655H128.143C127.871 27.6655 127.649 27.4616 127.649 27.2118V12.4911C127.649 12.2412 127.871 12.0374 128.143 12.0374H131.819C132.091 12.0374 132.313 12.2412 132.313 12.4911V13.4765ZM153.098 28C148.157 28 144.311 24.4603 144.311 19.935V19.8793C144.311 15.331 148.181 11.7307 153.159 11.7307C155.938 11.7307 158.059 12.5583 159.931 14.4132C160.107 14.5883 160.106 14.8578 159.929 15.0319L157.62 17.2902C157.523 17.3847 157.402 17.4331 157.261 17.4334C157.12 17.4337 156.998 17.386 156.901 17.292C155.82 16.2459 154.755 15.5934 153.128 15.5934C150.617 15.5934 148.975 17.6325 148.975 19.8235V19.8793C148.975 22.1873 150.67 24.1374 153.28 24.1374C154.86 24.1374 156.016 23.472 157.088 22.4622C157.183 22.3724 157.3 22.3264 157.437 22.3252C157.573 22.324 157.692 22.3677 157.789 22.4558L160.006 24.4631C160.194 24.6333 160.204 24.9086 160.027 25.089C158.103 27.0587 156.044 28 153.098 28ZM168.909 28C166.079 28 163.416 26.8885 161.688 24.8092C160.521 23.4046 159.909 21.6997 159.909 19.935V19.8793C159.909 18.096 160.531 16.372 161.71 14.9526C163.447 12.8606 166.12 11.7307 168.97 11.7307C171.785 11.7307 174.438 12.8176 176.175 14.8746C177.375 16.2952 178 18.0285 178 19.8235V19.8793C178 21.5642 177.438 23.197 176.371 24.5688C174.64 26.7934 171.868 28 168.909 28ZM89.8228 24.1374C92.4583 24.1374 94.1888 22.2887 94.1888 19.935V19.8793C94.1888 17.5427 92.3793 15.5934 89.7621 15.5934C87.1205 15.5934 85.4265 17.4783 85.4265 19.8235V19.8793C85.4265 22.1883 87.2361 24.1374 89.8228 24.1374ZM168.97 24.1374C171.605 24.1374 173.336 22.2887 173.336 19.935V19.8793C173.336 17.5427 171.526 15.5934 168.909 15.5934C166.268 15.5934 164.574 17.4783 164.574 19.8235V19.8793C164.574 22.1883 166.383 24.1374 168.97 24.1374Z" fill="#2A2F9D"/>
<path fill-rule="evenodd" clip-rule="evenodd" d="M120.605 23.1146C121.447 18.3589 123.294 12.7103 124.571 8.01537L124.828 7.17804C124.987 7.21601 125.153 7.23628 125.325 7.23628C126.409 7.23628 127.287 6.42985 127.287 5.43511C127.287 4.44028 126.409 3.63389 125.325 3.63389C124.241 3.63389 123.362 4.44028 123.362 5.43511C123.362 6.12926 123.79 6.73159 124.417 7.03234C122.142 9.67376 119.304 11.3901 116.849 10.6586C114.414 9.93316 112.795 7.17503 112.433 3.58915C113.404 3.48127 114.157 2.72195 114.157 1.80125C114.157 0.806423 113.278 0 112.194 0C111.111 0 110.232 0.806423 110.232 1.80125C110.232 2.76824 111.062 3.55718 112.104 3.60046C111.663 6.94082 110.127 9.46883 107.743 10.1791C105.319 10.9012 102.567 9.58092 100.298 6.95577C100.812 6.63097 101.148 6.08762 101.148 5.47222C101.148 4.47739 100.269 3.67097 99.1855 3.67097C98.1017 3.67097 97.223 4.47739 97.223 5.47222C97.223 6.46696 98.1017 7.27338 99.1855 7.27338C99.38 7.27338 99.568 7.24727 99.7454 7.19885L100.347 9.47663C101.658 14.06 102.752 18.4423 103.924 23.0215L103.953 23.1294V23.1146H109.179L112.294 17.1312L114.327 21.0354L115.409 23.1146H120.605ZM104.128 24.8795H120.582V28H104.128V24.8795Z" fill="#2A2F9D"/>
<path fill-rule="evenodd" clip-rule="evenodd" d="M57.7404 42C58.3808 42 58.7719 41.6023 59.1289 40.9724L58.7426 40.3094C58.4493 40.7735 58.1804 41.0554 57.7599 41.0554C57.1049 41.0554 56.6307 40.1355 56.6307 39V38.9836C56.6307 37.8481 57.1097 36.9365 57.7599 36.9365C58.1511 36.9365 58.4444 37.2265 58.7182 37.6575L59.1043 36.9033C58.7768 36.3729 58.3955 36 57.7648 36C56.7284 36 56 37.3509 56 39V39.0166C56 40.6824 56.7432 42 57.7404 42ZM59.7595 41.9006H60.3608V39.8785H61.1136L61.9545 41.9006H62.6683L61.7443 39.7045C62.2185 39.4725 62.5559 38.9006 62.5559 37.9475V37.931C62.5559 37.4255 62.4531 36.9945 62.2723 36.6796C62.0523 36.3149 61.715 36.0996 61.2848 36.0996H59.7595V41.9006ZM60.3608 38.9752V37.0276H61.2359C61.6808 37.0276 61.9448 37.3675 61.9448 37.9891V38.0055C61.9448 38.594 61.671 38.9752 61.2407 38.9752H60.3608ZM64.9269 42C65.978 42 66.721 40.6327 66.721 39V38.9836C66.721 37.3509 65.9877 36 64.9366 36C63.8856 36 63.1424 37.3675 63.1424 39V39.0166C63.1424 40.6492 63.8758 42 64.9269 42ZM64.9366 41.0554C64.2571 41.0554 63.7732 40.1271 63.7732 39V38.9836C63.7732 37.8564 64.2474 36.9365 64.9269 36.9365C65.6064 36.9365 66.0904 37.8731 66.0904 39V39.0166C66.0904 40.1438 65.6162 41.0554 64.9366 41.0554ZM68.1877 41.942H68.706L69.5469 37.7735L70.3877 41.942H70.9108L72.0988 36.0996H71.4682L70.6517 40.4005L69.8108 36.0829H69.3024L68.4615 40.4005L67.6451 36.0996H66.9949L68.1877 41.942ZM72.7148 41.9006H73.3063V37.7735L75.1933 41.9006H75.6969V36.0996H75.1054V40.1105L73.272 36.0996H72.7148V41.9006ZM78.1657 42C78.8061 42 79.1972 41.6023 79.5542 40.9724L79.1679 40.3094C78.8745 40.7735 78.6057 41.0554 78.1852 41.0554C77.5302 41.0554 77.056 40.1355 77.056 39V38.9836C77.056 37.8481 77.535 36.9365 78.1852 36.9365C78.5764 36.9365 78.8697 37.2265 79.1434 37.6575L79.5296 36.9033C79.2021 36.3729 78.8208 36 78.1901 36C77.1537 36 76.4253 37.3509 76.4253 39V39.0166C76.4253 40.6824 77.1684 42 78.1657 42ZM81.7199 42C82.771 42 83.514 40.6327 83.514 39V38.9836C83.514 37.3509 82.7807 36 81.7296 36C80.6786 36 79.9355 37.3675 79.9355 39V39.0166C79.9355 40.6492 80.6688 42 81.7199 42ZM81.7296 41.0554C81.05 41.0554 80.5661 40.1271 80.5661 39V38.9836C80.5661 37.8564 81.0403 36.9365 81.7199 36.9365C82.3994 36.9365 82.8834 37.8731 82.8834 39V39.0166C82.8834 40.1438 82.4092 41.0554 81.7296 41.0554ZM84.8976 41.9006H85.5037V37.0442H86.5891V36.0996H83.8123V37.0442H84.8976V41.9006ZM87.2247 41.9006H89.7863V40.9891H87.8259V39.431H89.5419V38.5194H87.8259V37.0111H89.762V36.0996H87.2247V41.9006ZM92.089 42C92.7294 42 93.1205 41.6023 93.4775 40.9724L93.0912 40.3094C92.7979 40.7735 92.529 41.0554 92.1085 41.0554C91.4535 41.0554 90.9793 40.1355 90.9793 39V38.9836C90.9793 37.8481 91.4583 36.9365 92.1085 36.9365C92.4997 36.9365 92.7931 37.2265 93.0668 37.6575L93.453 36.9033C93.1254 36.3729 92.7442 36 92.1134 36C91.0771 36 90.3486 37.3509 90.3486 39V39.0166C90.3486 40.6824 91.0918 42 92.089 42ZM94.1081 41.9006H94.7094V39.4559H96.3422V41.9006H96.9436V36.0996H96.3422V38.5111H94.7094V36.0996H94.1081V41.9006ZM100.488 41.9835C101.206 41.9835 101.71 41.337 101.71 40.2515V40.2348C101.71 39.2736 101.338 38.8343 100.615 38.536C99.9549 38.2707 99.7985 38.0718 99.7985 37.6244V37.6078C99.7985 37.2265 100.004 36.9199 100.356 36.9199C100.669 36.9199 100.977 37.1272 101.285 37.5165L101.607 36.7459C101.26 36.2735 100.864 36.0166 100.366 36.0166C99.6861 36.0166 99.1972 36.7045 99.1972 37.6989V37.7155C99.1972 38.7846 99.6079 39.1492 100.336 39.4476C100.972 39.6962 101.109 39.9199 101.109 40.3344V40.3508C101.109 40.7818 100.874 41.0801 100.502 41.0801C100.082 41.0801 99.7496 40.8067 99.4221 40.3261L99.0603 41.0554C99.471 41.6769 99.9647 41.9835 100.488 41.9835ZM104.052 42C105.103 42 105.846 40.6327 105.846 39V38.9836C105.846 37.3509 105.113 36 104.062 36C103.011 36 102.267 37.3675 102.267 39V39.0166C102.267 40.6492 103.001 42 104.052 42ZM104.062 41.0554C103.382 41.0554 102.898 40.1271 102.898 39V38.9836C102.898 37.8564 103.372 36.9365 104.052 36.9365C104.731 36.9365 105.215 37.8731 105.215 39V39.0166C105.215 40.1438 104.741 41.0554 104.062 41.0554ZM106.574 41.9006H107.176V39.5387H108.902V38.6106H107.176V37.0276H109.122V36.0996H106.574V41.9006ZM110.622 41.9006H111.229V37.0442H112.314V36.0996H109.537V37.0442H110.622V41.9006ZM113.878 41.942H114.396L115.237 37.7735L116.078 41.942H116.601L117.789 36.0996H117.159L116.342 40.4005L115.501 36.0829H114.993L114.152 40.4005L113.336 36.0996H112.685L113.878 41.942ZM117.672 41.9006H118.288L118.64 40.5001H120.258L120.605 41.9006H121.241L119.735 36.058H119.178L117.672 41.9006ZM118.86 39.5968L119.447 37.2762L120.038 39.5968H118.86ZM121.827 41.9006H122.429V39.8785H123.182L124.022 41.9006H124.736L123.812 39.7045C124.286 39.4725 124.624 38.9006 124.624 37.9475V37.931C124.624 37.4255 124.521 36.9945 124.34 36.6796C124.12 36.3149 123.783 36.0996 123.353 36.0996H121.827V41.9006ZM122.429 38.9752V37.0276H123.304C123.749 37.0276 124.013 37.3675 124.013 37.9891V38.0055C124.013 38.594 123.739 38.9752 123.309 38.9752H122.429ZM125.362 41.9006H127.924V40.9891H125.963V39.431H127.679V38.5194H125.963V37.0111H127.899V36.0996H125.362V41.9006ZM129.835 41.9835C130.554 41.9835 131.057 41.337 131.057 40.2515V40.2348C131.057 39.2736 130.686 38.8343 129.962 38.536C129.302 38.2707 129.146 38.0718 129.146 37.6244V37.6078C129.146 37.2265 129.351 36.9199 129.703 36.9199C130.016 36.9199 130.324 37.1272 130.632 37.5165L130.955 36.7459C130.608 36.2735 130.212 36.0166 129.713 36.0166C129.033 36.0166 128.545 36.7045 128.545 37.6989V37.7155C128.545 38.7846 128.955 39.1492 129.684 39.4476C130.319 39.6962 130.456 39.9199 130.456 40.3344V40.3508C130.456 40.7818 130.221 41.0801 129.85 41.0801C129.429 41.0801 129.097 40.8067 128.769 40.3261L128.408 41.0554C128.818 41.6769 129.312 41.9835 129.835 41.9835ZM133.233 41.9006H133.834V40.0359H134.514C135.267 40.0359 135.883 39.3563 135.883 38.0553V38.0387C135.883 36.8702 135.384 36.0996 134.582 36.0996H133.233V41.9006ZM133.834 39.116V37.0276H134.533C134.983 37.0276 135.272 37.3841 135.272 38.0637V38.0801C135.272 38.6851 134.988 39.116 134.533 39.116H133.834ZM136.499 41.9006H137.1V39.8785H137.853L138.694 41.9006H139.408L138.483 39.7045C138.958 39.4725 139.295 38.9006 139.295 37.9475V37.931C139.295 37.4255 139.192 36.9945 139.011 36.6796C138.792 36.3149 138.454 36.0996 138.024 36.0996H136.499V41.9006ZM137.1 38.9752V37.0276H137.975C138.42 37.0276 138.684 37.3675 138.684 37.9891V38.0055C138.684 38.594 138.41 38.9752 137.98 38.9752H137.1ZM140.067 41.9006H140.669V36.0996H140.067V41.9006ZM142.712 41.942H143.245L144.663 36.0996H144.013L142.986 40.5581L141.955 36.0996H141.29L142.712 41.942ZM144.467 41.9006H145.083L145.435 40.5001H147.054L147.401 41.9006H148.036L146.53 36.058H145.973L144.467 41.9006ZM145.655 39.5968L146.242 37.2762L146.834 39.5968H145.655ZM149.024 41.9006H149.63V37.0442H150.715V36.0996H147.938V37.0442H149.024V41.9006ZM151.351 41.9006H153.912V40.9891H151.952V39.431H153.668V38.5194H151.952V37.0111H153.888V36.0996H151.351V41.9006ZM156.093 41.9006H158.493V40.9724H156.694V36.0996H156.093V41.9006ZM159.153 41.9006H159.754V36.0996H159.153V41.9006ZM160.669 41.9006H161.26V37.757L162.331 40.4752H162.35L163.431 37.7404V41.9006H164.032V36.0996H163.392L162.35 38.8426L161.309 36.0996H160.669V41.9006ZM164.946 41.9006H165.548V36.0996H164.946V41.9006ZM167.303 41.9006H167.909V37.0442H168.994V36.0996H166.217V37.0442H167.303V41.9006ZM169.63 41.9006H172.192V40.9891H170.231V39.431H171.947V38.5194H170.231V37.0111H172.167V36.0996H169.63V41.9006ZM172.905 41.9006H174.181C175.257 41.9006 176 40.6327 176 39V38.9836C176 37.3509 175.257 36.0996 174.181 36.0996H172.905V41.9006ZM174.181 37.0276C174.9 37.0276 175.369 37.8647 175.369 39V39.0166C175.369 40.1519 174.9 40.9724 174.181 40.9724H173.507V37.0276H174.181Z" fill="#1B1918"/>
</svg>
