<svg width="304" height="279" viewBox="0 0 304 279" fill="none" xmlns="http://www.w3.org/2000/svg">
<path d="M156.771 70.2504C155.789 69.3538 154.8 68.4638 153.811 67.5672L152.115 66.0469C159.883 58.8482 164.026 50.2722 164.026 40.2344C164.026 30.1966 159.897 21.6206 152.086 14.3634C152.642 13.8892 153.212 13.4084 153.768 12.9146C154.759 12.0484 155.744 11.1669 156.721 10.2703C156.742 10.2468 156.759 10.2205 156.771 10.1924H156.843C156.9 10.2602 156.96 10.3253 157.024 10.3873C158.136 11.5178 159.291 12.6158 160.359 13.7787C162.54 16.1884 164.403 18.8178 165.911 21.6141C167.73 24.9013 169.035 28.3997 169.787 32.0092C170.141 33.7244 170.322 35.4656 170.553 37.2068C170.639 37.798 170.654 41.6313 170.639 41.7547C170.545 42.9371 170.488 44.1196 170.343 45.2955C169.938 48.5537 169.089 51.7546 167.817 54.8266C166.904 57.0595 165.781 59.2179 164.46 61.2781C163.082 63.4594 161.479 65.5193 159.673 67.4307C158.756 68.3988 157.789 69.3214 156.843 70.2634L156.771 70.2504Z" fill="#EBEBEB"/>
<path d="M142.76 22.862L147.43 18.626C152.669 23.2525 156.053 29.3124 157.054 35.856C158.562 45.8808 155.184 54.4828 147.51 61.7789C145.914 60.3431 144.369 58.9397 142.803 57.5234C145.343 55.2577 147.355 52.5575 148.719 49.5817C150.082 46.606 150.771 43.4148 150.744 40.1959C150.744 33.4586 147.95 27.6958 142.76 22.862Z" fill="#EBEBEB"/>
<path d="M138.06 53.3068L133.382 49.0903C134.681 47.9264 135.713 46.5429 136.416 45.0193C137.12 43.4958 137.482 41.8621 137.482 40.2122C137.482 38.5623 137.12 36.9286 136.416 35.405C135.713 33.8815 134.681 32.498 133.382 31.3341L138.06 27.124C139.986 28.8355 141.515 30.8739 142.558 33.1212C143.602 35.3685 144.139 37.7798 144.139 40.2154C144.139 42.651 143.602 45.0624 142.558 47.3097C141.515 49.5569 139.986 51.5954 138.06 53.3068Z" fill="#EBEBEB"/>
<path d="M270.974 204.522H290.09V197.252H270.974V204.522Z" fill="#EBEBEB"/>
<path d="M281.638 213.69H300.754V206.42H281.638V213.69Z" fill="#EBEBEB"/>
<path d="M260.304 213.69H279.421V206.42H260.304V213.69Z" fill="#EBEBEB"/>
<path d="M13.9114 213.69H33.0278V206.42H13.9114V213.69Z" fill="#EBEBEB"/>
<path d="M13.9114 17.5088L33.0278 17.5088V10.2387L13.9114 10.2387V17.5088Z" fill="#EBEBEB"/>
<path d="M3.25151 26.6748L22.3679 26.6748V19.4047H3.25151V26.6748Z" fill="#EBEBEB"/>
<path d="M281.638 17.5146L300.754 17.5146V10.2445L281.638 10.2445V17.5146Z" fill="#EBEBEB"/>
<path d="M248.074 96.751H228.958V104.021H248.074V96.751Z" fill="#EBEBEB"/>
<path d="M237.413 87.585H218.296V94.8551H237.413V87.585Z" fill="#EBEBEB"/>
<path d="M300.714 265.057C300.714 272.431 236.261 278.415 156.749 278.415C77.237 278.415 12.813 272.431 12.813 265.057C12.813 257.683 77.2659 251.699 156.778 251.699C236.29 251.699 300.714 257.683 300.714 265.057Z" fill="#EBEBEB"/>
<path d="M0 249.963L38.0018 249.807L76.0036 249.748L152 249.638L227.996 249.748L265.998 249.807L304 249.963L265.998 250.125L227.996 250.177L152 250.287L76.0036 250.177L38.0018 250.125L0 249.963Z" fill="#263238"/>
<path d="M123.853 17.3643H19.218V162.526H123.853V17.3643Z" fill="#37474F"/>
<path d="M115.906 17.3643L100.947 162.526H42.1183L27.1602 17.3643H115.906Z" fill="#455A64"/>
<path d="M79.9026 146.941H63.1758V152.568H79.9026V146.941Z" fill="#A6A6A6"/>
<path d="M52.0228 146.941H35.2959V152.568H52.0228V146.941Z" fill="#0082E0"/>
<path d="M107.776 146.941H91.0496V152.568H107.776V146.941Z" fill="#A6A6A6"/>
<path d="M55.3272 33.2832H53.1687V50.8835H55.3272V33.2832Z" fill="#37474F"/>
<path d="M59.6541 33.2832H57.4956V50.8835H59.6541V33.2832Z" fill="#37474F"/>
<path d="M63.9693 33.2832H61.8108V50.8835H63.9693V33.2832Z" fill="#37474F"/>
<path d="M68.2945 33.2832H66.136V50.8835H68.2945V33.2832Z" fill="#37474F"/>
<path d="M72.6117 33.2832H70.4531V50.8835H72.6117V33.2832Z" fill="#37474F"/>
<path d="M76.9366 33.2832H74.7781V50.8835H76.9366V33.2832Z" fill="#37474F"/>
<path d="M81.2538 33.2832H79.0952V50.8835H81.2538V33.2832Z" fill="#37474F"/>
<path d="M85.5787 33.2832H83.4202V50.8835H85.5787V33.2832Z" fill="#37474F"/>
<path d="M89.9017 33.2832H87.7432V50.8835H89.9017V33.2832Z" fill="#37474F"/>
<path d="M74.3145 73.877V265.057H214.367V73.877H74.3145ZM160.887 87.5726H127.801V82.2321H160.887V87.5726Z" fill="#EBEBEB"/>
<path d="M214.374 124.047V265.057H74.3145V196.157L214.374 124.047Z" fill="#0082E0"/>
<path opacity="0.1" d="M214.374 124.047V265.057H74.3145V196.157L214.374 124.047Z" fill="black"/>
<path d="M214.374 100.957V115.01L74.3145 187.035V186.574L214.374 100.957Z" fill="#0082E0"/>
<path d="M193.135 100.508H95.5603V205.544H193.135V100.508Z" fill="white"/>
<path d="M135.396 82.2329H140.789C140.789 82.2329 141.085 85.0136 143.532 85.4294C145.98 85.8452 149.712 84.091 152.917 78.4777C156.123 72.8643 154.311 67.7771 153.581 67.4913C152.852 67.2054 146.846 68.4008 142.846 73.8778H136.522C138.035 71.2888 140.064 68.9721 142.507 67.043C146.839 63.5021 150.737 62.2547 152.448 62.1118L156.469 58.0771L163.378 63.2747L166.67 63.697L162.533 69.4923C162.525 71.1583 162.329 72.8191 161.948 74.4495C160.82 77.5581 159.138 80.4808 156.967 83.1035C154.953 85.3839 151.574 88.8468 145.568 88.7429C139.562 88.6389 136.566 85.4294 135.396 82.2329Z" fill="#455A64"/>
<path d="M156.468 58.0771L163.377 63.2682L166.668 63.6905L159.695 58.389L156.468 58.0771Z" fill="#263238"/>
<path d="M153.58 67.4892C152.858 67.1968 146.844 68.3988 142.845 73.8757H140.888C146.505 66.8525 152.764 66.5861 153.58 67.4892Z" fill="#37474F"/>
<path d="M143.531 85.428C143.531 85.428 140.47 85.9737 139.199 82.2314H140.816C140.816 82.2314 141.098 84.8757 143.386 85.389L143.531 85.428Z" fill="#37474F"/>
<path d="M166.669 63.6902L162.525 69.4855C162.517 71.1489 162.324 72.8074 161.948 74.4362C161.37 76.5412 158.974 80.8097 156.967 83.0967C154.96 85.3836 151.574 88.8335 145.568 88.736C144.669 88.7268 143.774 88.6354 142.896 88.4632H143.005C149.935 89.3662 154.18 85.2147 157.559 79.8092C160.713 74.7675 159.797 68.5044 159.797 68.5044L163.406 63.2549L166.669 63.6902Z" fill="#37474F"/>
<path d="M167.021 62.2857L158.949 56.5049L157.713 57.903L165.785 63.6837L167.021 62.2857Z" fill="#455A64"/>
<path d="M186.545 52.1967C184.856 51.0468 168.945 41.86 164.808 39.5601C160.672 37.2602 157.459 35.415 155.481 37.5071C153.503 39.5991 152.651 44.4848 153.698 46.5574C154.745 48.6299 159.271 55.3478 159.372 55.9975C159.397 56.187 159.373 56.379 159.303 56.5591C159.233 56.7391 159.119 56.9025 158.968 57.037L166.324 62.462C166.611 62.0681 167.039 61.7746 167.537 61.6303C168.259 61.5004 180.431 62.0916 181.651 62.0397C183.172 62.0784 184.68 61.7784 186.042 61.1664C187.403 60.5544 188.576 59.6492 189.455 58.5313C192.14 55.0294 188.235 53.3532 186.545 52.1967ZM180.46 58.5963C176.85 58.5508 170.714 57.8036 166.086 55.0424C163.646 53.5806 157.257 48.2596 156.701 44.4069C156.624 43.0785 157.002 41.7609 157.784 40.6321C158.456 39.5536 162.296 42.0485 165.415 43.8806C168.534 45.7127 182.171 53.9249 183.225 54.5811C184.279 55.2373 185.968 56.0884 185.874 56.6082C185.78 57.1279 184.04 58.6287 180.46 58.5963Z" fill="#455A64"/>
<path d="M171.647 55.9808L164.013 51.4697L162.491 53.5552L170.125 58.0662L171.647 55.9808Z" fill="#455A64"/>
<path d="M189.453 58.4926C188.573 59.6112 187.401 60.5177 186.04 61.1318C184.679 61.746 183.171 62.0489 181.649 62.0139C180.429 62.0594 168.235 61.4682 167.535 61.6046C167.036 61.7429 166.606 62.035 166.322 62.4297L163.745 60.5456C163.89 60.5456 164.799 59.5191 165.658 59.4671C166.517 59.4151 179.635 61.2213 182.847 61.2213C186.06 61.2213 188.709 58.6225 189.489 56.8294C190.369 54.7958 186.745 52.4049 186.558 52.2295C188.247 53.36 192.138 55.0362 189.453 58.4926Z" fill="#37474F"/>
<path d="M116.005 217.604H113.377L112.843 218.871C112.798 218.972 112.72 219.059 112.62 219.121C112.52 219.182 112.401 219.215 112.28 219.215C112.211 219.214 112.143 219.203 112.078 219.183C111.927 219.131 111.805 219.029 111.738 218.898C111.67 218.767 111.663 218.617 111.717 218.481L114.113 212.744C114.16 212.642 114.24 212.554 114.342 212.493C114.444 212.431 114.564 212.398 114.687 212.398C114.81 212.398 114.93 212.431 115.033 212.493C115.135 212.554 115.214 212.642 115.261 212.744L117.651 218.481C117.705 218.616 117.698 218.765 117.632 218.896C117.566 219.028 117.446 219.13 117.297 219.183C117.23 219.204 117.159 219.215 117.088 219.215C116.968 219.215 116.851 219.182 116.753 219.12C116.655 219.059 116.58 218.972 116.539 218.871L116.005 217.604ZM115.565 216.532L114.684 214.44L113.81 216.532H115.565Z" fill="#263238"/>
<path d="M120.328 218.676C120.327 218.816 120.265 218.951 120.156 219.051C120.047 219.152 119.899 219.21 119.744 219.215C119.585 219.215 119.432 219.159 119.32 219.057C119.208 218.956 119.144 218.819 119.144 218.676V213.004C119.142 212.918 119.163 212.832 119.204 212.755C119.246 212.677 119.307 212.609 119.383 212.556C119.51 212.476 119.667 212.443 119.82 212.465C119.974 212.486 120.112 212.561 120.206 212.673L123.707 217.032V213.017C123.707 212.878 123.769 212.744 123.878 212.645C123.988 212.546 124.137 212.491 124.292 212.491C124.447 212.491 124.597 212.546 124.708 212.645C124.819 212.743 124.882 212.877 124.884 213.017V218.676C124.884 218.818 124.822 218.954 124.711 219.055C124.6 219.156 124.449 219.214 124.292 219.215C124.206 219.214 124.121 219.196 124.044 219.162C123.967 219.129 123.899 219.08 123.844 219.02C123.823 219.004 123.806 218.984 123.794 218.962L120.328 214.635V218.676Z" fill="#263238"/>
<path d="M128.321 218.676C128.32 218.816 128.258 218.951 128.149 219.051C128.04 219.152 127.892 219.21 127.737 219.215C127.578 219.215 127.425 219.159 127.313 219.057C127.2 218.956 127.137 218.819 127.137 218.676V213.004C127.135 212.918 127.156 212.832 127.197 212.755C127.239 212.677 127.3 212.609 127.376 212.556C127.503 212.476 127.66 212.443 127.813 212.465C127.967 212.486 128.105 212.561 128.199 212.673L131.7 217.032V213.017C131.7 212.878 131.761 212.744 131.871 212.645C131.981 212.546 132.13 212.491 132.285 212.491C132.44 212.491 132.59 212.546 132.701 212.645C132.811 212.743 132.875 212.877 132.877 213.017V218.676C132.877 218.818 132.814 218.954 132.704 219.055C132.593 219.156 132.442 219.214 132.285 219.215C132.199 219.214 132.114 219.196 132.037 219.162C131.96 219.129 131.891 219.08 131.837 219.02C131.816 219.004 131.799 218.984 131.786 218.962L128.321 214.635V218.676Z" fill="#263238"/>
<path d="M134.776 218.676V212.926C134.775 212.856 134.79 212.786 134.819 212.721C134.849 212.656 134.892 212.597 134.948 212.548C135.003 212.498 135.068 212.459 135.141 212.432C135.213 212.406 135.29 212.393 135.368 212.394H138.913C139.069 212.395 139.219 212.452 139.33 212.551C139.44 212.651 139.503 212.786 139.505 212.926C139.505 213.069 139.443 213.206 139.333 213.308C139.222 213.41 139.071 213.469 138.913 213.472H135.975V215.259H138.502C138.657 215.262 138.806 215.319 138.916 215.418C139.026 215.518 139.09 215.651 139.093 215.792C139.094 215.862 139.08 215.933 139.051 215.998C139.021 216.064 138.978 216.124 138.923 216.175C138.868 216.225 138.803 216.266 138.73 216.294C138.658 216.322 138.58 216.336 138.502 216.337H135.975V218.13H138.913C139.062 218.145 139.199 218.209 139.298 218.309C139.398 218.409 139.453 218.538 139.453 218.673C139.453 218.807 139.398 218.937 139.298 219.037C139.199 219.137 139.062 219.201 138.913 219.215H135.397C135.317 219.218 135.237 219.206 135.161 219.18C135.086 219.154 135.017 219.115 134.96 219.065C134.902 219.014 134.855 218.954 134.824 218.887C134.793 218.82 134.776 218.749 134.776 218.676Z" fill="#263238"/>
<path d="M144.204 217.517C144.3 217.414 144.437 217.348 144.585 217.335C144.734 217.322 144.882 217.361 144.998 217.445C145.579 217.889 146.303 218.153 147.063 218.199C147.546 218.206 148.02 218.079 148.42 217.835C148.555 217.761 148.668 217.658 148.748 217.536C148.829 217.414 148.875 217.275 148.882 217.133C148.886 217.023 148.853 216.915 148.788 216.821C148.705 216.704 148.594 216.604 148.464 216.529C148.003 216.297 147.499 216.143 146.976 216.074C146.497 215.997 146.029 215.869 145.583 215.691C145.172 215.531 144.821 215.267 144.572 214.931C144.41 214.69 144.325 214.413 144.327 214.132C144.337 213.85 144.421 213.575 144.572 213.327C144.722 213.08 144.935 212.868 145.193 212.709C145.742 212.366 146.395 212.186 147.063 212.196C147.92 212.233 148.744 212.505 149.424 212.975C149.484 213.011 149.536 213.058 149.577 213.112C149.617 213.166 149.645 213.227 149.659 213.291C149.673 213.355 149.673 213.421 149.659 213.485C149.644 213.549 149.616 213.61 149.575 213.664C149.537 213.72 149.487 213.769 149.427 213.807C149.367 213.845 149.3 213.872 149.228 213.886C149.157 213.9 149.083 213.901 149.011 213.888C148.939 213.876 148.871 213.85 148.81 213.813C148.315 213.441 147.705 213.214 147.063 213.164C146.63 213.158 146.207 213.274 145.85 213.495C145.733 213.56 145.634 213.65 145.563 213.756C145.491 213.862 145.449 213.982 145.439 214.106C145.432 214.202 145.46 214.298 145.518 214.379C145.594 214.48 145.692 214.567 145.807 214.632C146.224 214.852 146.685 214.998 147.164 215.061C147.678 215.144 148.18 215.281 148.658 215.47C149.097 215.644 149.472 215.926 149.741 216.282C149.91 216.531 149.999 216.816 150.001 217.107C149.991 217.408 149.901 217.702 149.739 217.966C149.577 218.229 149.348 218.454 149.07 218.621C148.483 218.991 147.78 219.185 147.063 219.173C146.045 219.132 145.071 218.789 144.291 218.199C144.187 218.114 144.121 217.998 144.105 217.872C144.089 217.747 144.124 217.62 144.204 217.517Z" fill="#263238"/>
<path d="M158.186 212.926V218.676C158.183 218.819 158.117 218.955 158.004 219.056C157.891 219.157 157.739 219.214 157.58 219.215C157.421 219.215 157.269 219.159 157.156 219.057C157.044 218.956 156.981 218.819 156.981 218.676V214.577L155.422 216.526C155.367 216.595 155.294 216.651 155.21 216.69C155.126 216.728 155.032 216.748 154.938 216.747C154.841 216.748 154.746 216.728 154.659 216.69C154.573 216.651 154.498 216.595 154.44 216.526L152.888 214.577V218.676C152.888 218.819 152.824 218.956 152.712 219.057C152.6 219.159 152.447 219.215 152.288 219.215C152.129 219.215 151.977 219.159 151.865 219.057C151.752 218.956 151.689 218.819 151.689 218.676V212.926C151.689 212.785 151.752 212.65 151.863 212.55C151.974 212.45 152.124 212.394 152.281 212.394C152.374 212.394 152.466 212.414 152.549 212.453C152.632 212.491 152.703 212.547 152.758 212.614L154.923 215.304L157.089 212.614C157.144 212.545 157.217 212.489 157.301 212.451C157.385 212.412 157.478 212.393 157.573 212.394C157.732 212.394 157.885 212.449 157.999 212.548C158.114 212.648 158.181 212.783 158.186 212.926Z" fill="#263238"/>
<path d="M160.881 212.926C160.88 212.856 160.895 212.786 160.925 212.72C160.954 212.655 160.999 212.595 161.055 212.545C161.111 212.496 161.177 212.457 161.25 212.431C161.323 212.405 161.402 212.392 161.48 212.394C161.559 212.393 161.637 212.406 161.71 212.432C161.783 212.459 161.85 212.498 161.906 212.547C161.962 212.597 162.007 212.655 162.038 212.721C162.069 212.786 162.086 212.856 162.087 212.926V218.676C162.085 218.82 162.02 218.957 161.906 219.058C161.793 219.159 161.64 219.216 161.48 219.216C161.401 219.216 161.323 219.203 161.25 219.176C161.177 219.149 161.11 219.11 161.054 219.06C160.998 219.009 160.954 218.949 160.925 218.884C160.895 218.818 160.88 218.747 160.881 218.676V212.926Z" fill="#263238"/>
<path d="M168.742 213.472H167.024V218.67C167.033 218.745 167.024 218.821 166.999 218.894C166.973 218.966 166.93 219.032 166.874 219.089C166.818 219.145 166.749 219.19 166.672 219.221C166.595 219.252 166.512 219.268 166.428 219.268C166.344 219.268 166.26 219.252 166.184 219.221C166.107 219.19 166.038 219.145 165.982 219.089C165.925 219.032 165.883 218.966 165.857 218.894C165.832 218.821 165.823 218.745 165.832 218.67V213.472H164.121C163.962 213.471 163.809 213.412 163.697 213.31C163.585 213.208 163.522 213.07 163.522 212.926C163.521 212.856 163.536 212.786 163.566 212.72C163.596 212.655 163.64 212.595 163.696 212.545C163.752 212.496 163.818 212.457 163.892 212.431C163.965 212.405 164.043 212.392 164.121 212.394H168.742C168.899 212.394 169.051 212.45 169.163 212.549C169.275 212.649 169.339 212.785 169.341 212.926C169.339 213.07 169.276 213.206 169.164 213.308C169.052 213.41 168.901 213.469 168.742 213.472Z" fill="#263238"/>
<path d="M171.122 218.676V212.926C171.121 212.856 171.136 212.786 171.166 212.72C171.196 212.655 171.24 212.595 171.296 212.545C171.352 212.496 171.419 212.457 171.492 212.431C171.565 212.405 171.643 212.392 171.722 212.394C171.8 212.393 171.878 212.406 171.951 212.432C172.024 212.459 172.091 212.498 172.147 212.547C172.204 212.597 172.249 212.655 172.28 212.721C172.311 212.786 172.327 212.856 172.328 212.926V215.265H175.1V212.926C175.099 212.856 175.114 212.786 175.144 212.72C175.174 212.655 175.218 212.595 175.274 212.545C175.33 212.496 175.396 212.457 175.469 212.431C175.543 212.405 175.621 212.392 175.699 212.394C175.778 212.393 175.856 212.406 175.929 212.432C176.002 212.459 176.069 212.498 176.125 212.547C176.181 212.597 176.226 212.655 176.257 212.721C176.288 212.786 176.305 212.856 176.306 212.926V218.676C176.306 218.748 176.29 218.818 176.259 218.884C176.229 218.95 176.184 219.01 176.128 219.06C176.071 219.11 176.004 219.15 175.931 219.176C175.857 219.203 175.779 219.216 175.699 219.216C175.62 219.216 175.542 219.203 175.469 219.176C175.396 219.149 175.329 219.11 175.273 219.06C175.218 219.009 175.174 218.949 175.144 218.884C175.114 218.818 175.099 218.747 175.1 218.676V216.337H172.299V218.676C172.299 218.748 172.283 218.818 172.253 218.884C172.222 218.95 172.177 219.01 172.121 219.06C172.065 219.11 171.998 219.15 171.924 219.176C171.851 219.203 171.772 219.216 171.693 219.216C171.538 219.21 171.392 219.151 171.286 219.05C171.179 218.95 171.12 218.815 171.122 218.676Z" fill="#263238"/>
<path d="M111.421 233.443C111.42 233.401 111.429 233.359 111.446 233.319C111.463 233.28 111.489 233.244 111.522 233.214C111.555 233.183 111.595 233.159 111.638 233.143C111.681 233.127 111.728 233.118 111.775 233.118C111.871 233.118 111.964 233.152 112.033 233.213C112.102 233.274 112.141 233.356 112.143 233.443V236.893C112.142 236.936 112.132 236.978 112.113 237.017C112.094 237.056 112.067 237.091 112.032 237.121C111.998 237.15 111.958 237.174 111.914 237.189C111.87 237.205 111.822 237.212 111.775 237.211C111.728 237.212 111.682 237.205 111.638 237.189C111.595 237.173 111.556 237.15 111.523 237.12C111.49 237.09 111.464 237.055 111.446 237.016C111.429 236.977 111.42 236.935 111.421 236.893V233.443Z" fill="#263238"/>
<path d="M113.357 236.893V233.443C113.356 233.401 113.365 233.359 113.382 233.319C113.399 233.28 113.425 233.244 113.458 233.214C113.491 233.183 113.53 233.159 113.574 233.143C113.617 233.127 113.664 233.118 113.711 233.118H114.462C115.065 233.118 115.643 233.334 116.07 233.718C116.496 234.101 116.736 234.622 116.736 235.165C116.736 235.707 116.496 236.228 116.07 236.612C115.643 236.996 115.065 237.211 114.462 237.211H113.74C113.691 237.216 113.641 237.211 113.594 237.197C113.547 237.183 113.504 237.16 113.468 237.13C113.432 237.1 113.403 237.063 113.384 237.022C113.365 236.981 113.356 236.937 113.357 236.893ZM114.079 236.562H114.462C114.873 236.562 115.268 236.414 115.559 236.152C115.85 235.89 116.014 235.535 116.014 235.165C116.014 234.794 115.85 234.439 115.559 234.177C115.268 233.915 114.873 233.768 114.462 233.768H114.057L114.079 236.562Z" fill="#263238"/>
<path d="M120.691 236.892C120.689 236.976 120.652 237.056 120.586 237.115C120.52 237.174 120.431 237.208 120.338 237.21C120.291 237.211 120.244 237.203 120.201 237.188C120.158 237.172 120.118 237.148 120.085 237.119C120.052 237.089 120.026 237.054 120.009 237.015C119.991 236.976 119.983 236.934 119.984 236.892V233.494C119.98 233.442 119.991 233.39 120.017 233.343C120.042 233.297 120.081 233.257 120.128 233.227C120.203 233.178 120.297 233.157 120.388 233.169C120.48 233.182 120.563 233.226 120.619 233.292L122.72 235.891V233.494C122.72 233.41 122.756 233.33 122.821 233.271C122.886 233.211 122.974 233.177 123.066 233.175C123.16 233.177 123.25 233.211 123.317 233.27C123.384 233.329 123.424 233.409 123.427 233.494V236.892C123.426 236.977 123.387 237.058 123.319 237.117C123.252 237.177 123.161 237.21 123.066 237.21C123.015 237.209 122.965 237.198 122.919 237.178C122.872 237.158 122.832 237.129 122.799 237.093V237.061L120.72 234.462L120.691 236.892Z" fill="#263238"/>
<path d="M125.209 236.788C124.918 236.509 124.758 236.139 124.762 235.755C124.765 235.377 124.924 235.013 125.209 234.735C125.351 234.595 125.524 234.482 125.716 234.405C125.909 234.328 126.117 234.288 126.328 234.287C126.534 234.286 126.738 234.325 126.925 234.402C127.113 234.48 127.278 234.594 127.411 234.735C127.709 235.007 127.875 235.374 127.873 235.755C127.877 235.947 127.839 236.137 127.759 236.314C127.68 236.492 127.561 236.653 127.411 236.788C127.276 236.927 127.109 237.038 126.923 237.114C126.736 237.191 126.533 237.23 126.328 237.23C126.118 237.23 125.91 237.19 125.718 237.114C125.525 237.038 125.352 236.927 125.209 236.788ZM125.469 235.755C125.457 235.991 125.542 236.222 125.707 236.405C125.876 236.546 126.098 236.623 126.328 236.62C126.551 236.619 126.765 236.543 126.928 236.405C127.101 236.226 127.192 235.993 127.18 235.755C127.184 235.532 127.094 235.316 126.928 235.151C126.765 235.012 126.552 234.931 126.328 234.924C126.097 234.928 125.876 235.009 125.707 235.151C125.549 235.32 125.464 235.535 125.469 235.755Z" fill="#263238"/>
<path d="M129.254 236.386C129.317 236.386 129.38 236.397 129.439 236.419C129.497 236.441 129.551 236.473 129.596 236.513C129.641 236.554 129.676 236.602 129.701 236.654C129.725 236.707 129.737 236.764 129.737 236.821C129.737 236.878 129.725 236.935 129.701 236.988C129.676 237.04 129.641 237.088 129.596 237.129C129.551 237.169 129.497 237.201 129.439 237.223C129.38 237.245 129.317 237.256 129.254 237.256C129.19 237.256 129.127 237.245 129.069 237.223C129.01 237.201 128.957 237.169 128.912 237.129C128.867 237.088 128.831 237.04 128.807 236.988C128.783 236.935 128.77 236.878 128.77 236.821C128.77 236.764 128.783 236.707 128.807 236.654C128.831 236.602 128.867 236.554 128.912 236.513C128.957 236.473 129.01 236.441 129.069 236.419C129.127 236.397 129.19 236.386 129.254 236.386Z" fill="#263238"/>
<path d="M133.454 233.443V236.893C133.454 236.936 133.444 236.978 133.426 237.017C133.408 237.056 133.381 237.091 133.347 237.121C133.314 237.15 133.274 237.174 133.23 237.189C133.186 237.205 133.14 237.213 133.093 237.212C133.046 237.213 132.999 237.205 132.955 237.189C132.911 237.174 132.871 237.15 132.838 237.121C132.804 237.091 132.777 237.056 132.759 237.017C132.741 236.978 132.732 236.936 132.732 236.893V234.015L132.472 234.152C132.432 234.173 132.387 234.188 132.341 234.194C132.295 234.2 132.247 234.197 132.202 234.186C132.157 234.175 132.115 234.156 132.078 234.13C132.041 234.104 132.011 234.072 131.988 234.035C131.963 233.999 131.946 233.959 131.938 233.917C131.931 233.876 131.932 233.833 131.943 233.792C131.954 233.751 131.973 233.712 132.001 233.678C132.029 233.644 132.063 233.615 132.104 233.593L132.905 233.164H133.114C133.114 233.164 133.114 233.164 133.15 233.164H133.186C133.186 233.164 133.186 233.164 133.186 233.197C133.183 233.209 133.183 233.223 133.186 233.236L133.454 233.443Z" fill="#263238"/>
<path d="M137.222 236.893C137.222 236.936 137.212 236.978 137.194 237.017C137.176 237.056 137.149 237.091 137.115 237.121C137.082 237.15 137.042 237.174 136.998 237.189C136.954 237.205 136.908 237.213 136.861 237.212H134.55C134.5 237.213 134.45 237.205 134.404 237.187C134.358 237.169 134.317 237.142 134.283 237.108C134.217 237.047 134.18 236.965 134.18 236.88C134.18 236.795 134.217 236.714 134.283 236.653L136.211 235.087C136.328 234.982 136.409 234.849 136.443 234.704C136.477 234.558 136.462 234.407 136.402 234.268C136.341 234.13 136.236 234.011 136.101 233.925C135.966 233.84 135.806 233.792 135.641 233.788C135.433 233.789 135.233 233.859 135.077 233.983L134.875 234.145C134.843 234.176 134.804 234.201 134.76 234.218C134.717 234.235 134.67 234.244 134.623 234.244C134.575 234.244 134.528 234.235 134.485 234.218C134.442 234.201 134.402 234.176 134.37 234.145C134.336 234.116 134.31 234.08 134.291 234.041C134.273 234.002 134.264 233.96 134.264 233.918C134.264 233.875 134.273 233.833 134.291 233.794C134.31 233.755 134.336 233.72 134.37 233.69L134.572 233.528C134.854 233.292 135.226 233.161 135.612 233.164C135.83 233.166 136.046 233.207 136.246 233.287C136.446 233.366 136.625 233.481 136.774 233.625C136.912 233.762 137.018 233.922 137.087 234.096C137.156 234.269 137.186 234.454 137.175 234.638C137.164 234.822 137.113 235.003 137.025 235.169C136.936 235.335 136.811 235.484 136.658 235.607L135.431 236.607H136.839C136.931 236.602 137.022 236.628 137.094 236.682C137.165 236.735 137.211 236.811 137.222 236.893Z" fill="#263238"/>
<path d="M141.395 236.125C141.395 236.167 141.386 236.209 141.368 236.248C141.349 236.287 141.323 236.322 141.289 236.352C141.255 236.382 141.216 236.405 141.172 236.421C141.128 236.436 141.081 236.444 141.034 236.443H140.969V236.891C140.969 236.934 140.96 236.975 140.942 237.015C140.923 237.054 140.897 237.089 140.863 237.119C140.83 237.148 140.79 237.172 140.746 237.187C140.702 237.203 140.655 237.21 140.608 237.21C140.562 237.21 140.515 237.203 140.472 237.187C140.428 237.171 140.389 237.148 140.356 237.118C140.323 237.089 140.297 237.053 140.279 237.014C140.262 236.975 140.254 236.933 140.255 236.891V236.443H138.204C138.125 236.447 138.048 236.424 137.988 236.378C137.949 236.353 137.917 236.32 137.893 236.283C137.869 236.246 137.854 236.205 137.848 236.162C137.843 236.119 137.847 236.076 137.861 236.035C137.876 235.994 137.899 235.956 137.93 235.923L140.334 233.233H140.37H140.449H140.493H140.659V233.266V233.305C140.662 233.315 140.662 233.327 140.659 233.337V235.715H140.724C140.784 235.635 140.877 235.58 140.983 235.562C141.089 235.543 141.198 235.564 141.287 235.618C141.376 235.672 141.437 235.756 141.458 235.851C141.478 235.946 141.456 236.044 141.395 236.125ZM140.255 234.357L138.962 235.8H140.255V234.357Z" fill="#263238"/>
<path d="M144.63 234.735C144.783 234.868 144.904 235.028 144.985 235.204C145.067 235.381 145.108 235.57 145.106 235.762C145.106 235.953 145.064 236.142 144.982 236.318C144.9 236.494 144.781 236.654 144.63 236.788C144.482 236.923 144.306 237.03 144.111 237.103C143.916 237.175 143.707 237.212 143.497 237.211C143.286 237.212 143.077 237.175 142.882 237.102C142.688 237.03 142.511 236.923 142.363 236.788C142.326 236.758 142.295 236.722 142.274 236.681C142.253 236.64 142.241 236.595 142.24 236.55C142.238 236.505 142.247 236.46 142.265 236.418C142.284 236.376 142.312 236.338 142.347 236.306C142.383 236.274 142.425 236.249 142.472 236.233C142.518 236.216 142.568 236.208 142.619 236.209C142.669 236.211 142.718 236.221 142.763 236.24C142.809 236.259 142.85 236.287 142.883 236.32C142.965 236.395 143.063 236.454 143.171 236.494C143.279 236.534 143.394 236.555 143.511 236.554C143.625 236.554 143.739 236.533 143.844 236.493C143.949 236.453 144.045 236.394 144.125 236.32C144.207 236.247 144.272 236.16 144.317 236.064C144.361 235.969 144.384 235.866 144.384 235.762C144.387 235.657 144.366 235.554 144.321 235.457C144.276 235.361 144.209 235.274 144.125 235.203C144.046 235.128 143.95 235.07 143.845 235.031C143.739 234.991 143.625 234.973 143.511 234.976C143.395 234.973 143.279 234.992 143.171 235.031C143.063 235.07 142.965 235.128 142.883 235.203C142.814 235.265 142.72 235.3 142.623 235.3C142.526 235.3 142.432 235.265 142.363 235.203L142.298 235.125C142.299 235.112 142.299 235.099 142.298 235.086C142.291 235.052 142.291 235.016 142.298 234.982L142.493 233.468C142.512 233.374 142.572 233.289 142.659 233.234C142.709 233.208 142.767 233.194 142.825 233.195H144.745C144.829 233.21 144.904 233.251 144.958 233.31C145.012 233.369 145.041 233.444 145.041 233.52C145.041 233.597 145.012 233.671 144.958 233.73C144.904 233.789 144.829 233.83 144.745 233.845H143.143L143.071 234.423C143.212 234.39 143.357 234.372 143.504 234.371C143.918 234.355 144.322 234.486 144.63 234.735Z" fill="#263238"/>
<path d="M148.565 234.734C148.717 234.868 148.837 235.028 148.918 235.204C149 235.38 149.042 235.569 149.042 235.76C149.038 236.145 148.867 236.514 148.565 236.787C148.416 236.922 148.238 237.029 148.042 237.102C147.847 237.174 147.636 237.211 147.425 237.209C147.214 237.211 147.005 237.174 146.81 237.101C146.616 237.029 146.439 236.922 146.291 236.787C146.255 236.757 146.227 236.721 146.207 236.681C146.188 236.64 146.177 236.597 146.177 236.553C146.177 236.509 146.188 236.466 146.207 236.425C146.227 236.385 146.255 236.349 146.291 236.319C146.36 236.257 146.454 236.222 146.551 236.222C146.649 236.222 146.742 236.257 146.811 236.319C146.891 236.394 146.988 236.453 147.095 236.494C147.201 236.534 147.316 236.554 147.432 236.553C147.547 236.553 147.662 236.533 147.769 236.492C147.875 236.452 147.972 236.393 148.053 236.319C148.216 236.17 148.309 235.97 148.313 235.76C148.314 235.656 148.291 235.553 148.247 235.457C148.202 235.361 148.136 235.274 148.053 235.202C147.973 235.126 147.876 235.067 147.769 235.028C147.662 234.989 147.547 234.97 147.432 234.974C147.317 234.972 147.202 234.99 147.095 235.03C146.988 235.069 146.892 235.127 146.811 235.202C146.742 235.263 146.649 235.298 146.551 235.298C146.454 235.298 146.36 235.263 146.291 235.202L146.219 235.124C146.22 235.111 146.22 235.098 146.219 235.085C146.212 235.05 146.212 235.015 146.219 234.981L146.414 233.467C146.42 233.42 146.438 233.375 146.465 233.334C146.493 233.294 146.529 233.26 146.573 233.233C146.626 233.207 146.686 233.194 146.746 233.194H148.659C148.713 233.184 148.768 233.185 148.821 233.197C148.874 233.209 148.923 233.231 148.965 233.263C149.007 233.294 149.041 233.333 149.064 233.377C149.088 233.421 149.1 233.47 149.1 233.519C149.1 233.568 149.088 233.616 149.064 233.661C149.041 233.705 149.007 233.744 148.965 233.775C148.923 233.806 148.874 233.829 148.821 233.84C148.768 233.852 148.713 233.853 148.659 233.844H147.064L146.984 234.422C147.126 234.389 147.271 234.372 147.417 234.37C147.838 234.35 148.251 234.481 148.565 234.734Z" fill="#263238"/>
<path d="M153.14 235.82C153.143 236.064 153.074 236.304 152.942 236.517C152.811 236.729 152.619 236.907 152.388 237.034C152.156 237.16 151.892 237.229 151.621 237.236C151.351 237.242 151.083 237.185 150.844 237.07C150.606 236.954 150.404 236.785 150.26 236.579C150.116 236.373 150.035 236.136 150.023 235.893C150.011 235.65 150.07 235.408 150.194 235.191C150.318 234.974 150.502 234.79 150.729 234.657C150.587 234.491 150.511 234.288 150.512 234.079C150.512 233.821 150.626 233.573 150.829 233.39C151.033 233.207 151.308 233.104 151.595 233.104C151.882 233.104 152.158 233.207 152.361 233.39C152.564 233.573 152.678 233.821 152.678 234.079C152.679 234.288 152.603 234.491 152.462 234.657C152.672 234.786 152.844 234.96 152.962 235.162C153.081 235.365 153.142 235.591 153.14 235.82ZM152.418 235.82C152.418 235.62 152.33 235.427 152.173 235.285C152.017 235.143 151.804 235.062 151.581 235.06C151.464 235.05 151.346 235.063 151.234 235.096C151.123 235.13 151.021 235.184 150.934 235.255C150.847 235.326 150.778 235.413 150.73 235.51C150.683 235.607 150.658 235.711 150.658 235.817C150.658 235.923 150.683 236.027 150.73 236.124C150.778 236.221 150.847 236.308 150.934 236.379C151.021 236.45 151.123 236.504 151.234 236.538C151.346 236.571 151.464 236.584 151.581 236.574C151.691 236.575 151.801 236.556 151.903 236.518C152.006 236.481 152.099 236.426 152.178 236.355C152.256 236.285 152.318 236.202 152.361 236.11C152.404 236.018 152.425 235.92 152.425 235.82H152.418ZM151.213 234.079C151.211 234.145 151.232 234.21 151.271 234.265C151.311 234.32 151.368 234.364 151.435 234.39C151.502 234.416 151.576 234.423 151.648 234.411C151.72 234.399 151.786 234.368 151.838 234.322C151.891 234.276 151.926 234.217 151.941 234.153C151.956 234.088 151.949 234.021 151.922 233.96C151.894 233.899 151.847 233.847 151.786 233.811C151.725 233.774 151.654 233.754 151.581 233.754C151.486 233.756 151.395 233.791 151.328 233.851C151.26 233.912 151.222 233.993 151.22 234.079H151.213Z" fill="#263238"/>
<path d="M157.125 236.892C157.126 236.934 157.117 236.976 157.1 237.015C157.083 237.054 157.057 237.09 157.024 237.119C156.99 237.149 156.951 237.173 156.908 237.188C156.864 237.204 156.818 237.212 156.771 237.211H154.454C154.404 237.211 154.354 237.202 154.308 237.185C154.262 237.167 154.221 237.14 154.187 237.107C154.153 237.077 154.126 237.042 154.108 237.003C154.09 236.964 154.081 236.922 154.081 236.879C154.081 236.837 154.09 236.795 154.108 236.756C154.126 236.717 154.153 236.682 154.187 236.652L156.107 235.086C156.271 234.95 156.368 234.761 156.379 234.561C156.39 234.36 156.313 234.164 156.165 234.014C156.087 233.935 155.991 233.872 155.884 233.83C155.777 233.787 155.661 233.766 155.544 233.767C155.336 233.767 155.135 233.837 154.981 233.962L154.779 234.125C154.746 234.156 154.707 234.18 154.664 234.197C154.62 234.214 154.573 234.223 154.526 234.223C154.479 234.223 154.432 234.214 154.388 234.197C154.345 234.18 154.306 234.156 154.273 234.125C154.24 234.095 154.213 234.06 154.195 234.021C154.177 233.982 154.167 233.94 154.167 233.897C154.167 233.855 154.177 233.813 154.195 233.774C154.213 233.735 154.24 233.699 154.273 233.67L154.475 233.507C154.761 233.272 155.135 233.142 155.522 233.144C155.74 233.144 155.955 233.186 156.154 233.265C156.352 233.345 156.531 233.46 156.677 233.605C156.955 233.881 157.099 234.244 157.079 234.616C157.059 234.987 156.875 235.337 156.569 235.586L155.342 236.587H156.728C156.776 236.583 156.826 236.587 156.872 236.6C156.919 236.613 156.962 236.635 156.999 236.663C157.036 236.692 157.066 236.727 157.088 236.766C157.11 236.806 157.122 236.848 157.125 236.892Z" fill="#263238"/>
<path d="M160.836 233.565L159.219 237.021C159.193 237.08 159.147 237.13 159.087 237.164C159.027 237.198 158.957 237.214 158.887 237.209C158.842 237.218 158.795 237.218 158.75 237.209C158.664 237.174 158.597 237.111 158.561 237.032C158.525 236.954 158.522 236.867 158.555 236.787L159.962 233.785H158.28C158.186 233.784 158.096 233.749 158.03 233.688C157.964 233.627 157.927 233.546 157.927 233.461C157.926 233.418 157.934 233.376 157.951 233.337C157.969 233.297 157.995 233.262 158.028 233.231C158.061 233.201 158.1 233.177 158.143 233.161C158.187 233.144 158.233 233.136 158.28 233.136H160.576C160.623 233.148 160.669 233.163 160.713 233.181C160.713 233.181 160.713 233.181 160.713 233.214C160.72 233.257 160.72 233.301 160.713 233.344L160.836 233.565Z" fill="#263238"/>
<path d="M164.072 234.729C164.222 234.862 164.342 235.021 164.424 235.196C164.506 235.371 164.548 235.559 164.548 235.749C164.552 236.038 164.46 236.322 164.283 236.563C164.106 236.805 163.853 236.993 163.557 237.104C163.26 237.215 162.934 237.244 162.619 237.187C162.304 237.129 162.016 236.989 161.79 236.782C161.753 236.752 161.723 236.716 161.701 236.675C161.68 236.634 161.668 236.59 161.667 236.545C161.665 236.499 161.674 236.454 161.693 236.413C161.711 236.371 161.739 236.332 161.775 236.3C161.81 236.269 161.852 236.243 161.899 236.227C161.946 236.21 161.996 236.202 162.046 236.204C162.096 236.205 162.145 236.215 162.191 236.235C162.236 236.254 162.277 236.281 162.31 236.315C162.476 236.461 162.699 236.542 162.931 236.542C163.163 236.542 163.385 236.46 163.552 236.315C163.636 236.241 163.702 236.153 163.747 236.056C163.791 235.959 163.813 235.855 163.812 235.749C163.814 235.646 163.791 235.544 163.747 235.449C163.702 235.353 163.636 235.268 163.552 235.197C163.39 235.049 163.169 234.965 162.938 234.963C162.888 234.965 162.838 234.957 162.791 234.939C162.745 234.921 162.704 234.894 162.671 234.859C162.602 234.797 162.564 234.713 162.564 234.625C162.564 234.538 162.602 234.454 162.671 234.392L163.335 233.781H162.281C162.233 233.781 162.186 233.772 162.141 233.756C162.097 233.739 162.057 233.714 162.023 233.683C161.99 233.653 161.963 233.616 161.946 233.576C161.928 233.536 161.919 233.493 161.92 233.45C161.919 233.406 161.928 233.363 161.946 233.323C161.963 233.283 161.99 233.246 162.023 233.216C162.057 233.185 162.097 233.16 162.141 233.144C162.186 233.127 162.233 233.118 162.281 233.118H164.202C164.299 233.118 164.393 233.153 164.462 233.215C164.531 233.277 164.57 233.362 164.57 233.45C164.567 233.504 164.553 233.557 164.526 233.605L164.461 233.69L163.638 234.45C163.802 234.516 163.95 234.611 164.072 234.729Z" fill="#263238"/>
<path d="M165.542 234.534C165.554 234.177 165.715 233.837 165.993 233.582C166.271 233.327 166.646 233.175 167.043 233.157C167.439 233.139 167.829 233.256 168.134 233.485C168.439 233.713 168.637 234.037 168.69 234.391C168.69 234.502 168.69 234.619 168.69 234.729C168.694 235.137 168.616 235.542 168.459 235.925C168.306 236.33 168.012 236.681 167.621 236.925C167.331 237.097 166.994 237.193 166.647 237.204C166.551 237.206 166.459 237.175 166.389 237.117C166.319 237.059 166.277 236.978 166.271 236.893C166.271 236.806 166.308 236.723 166.373 236.66C166.439 236.598 166.529 236.56 166.625 236.555C166.841 236.551 167.051 236.493 167.231 236.386C167.404 236.282 167.545 236.141 167.643 235.977L167.729 235.827C167.532 235.906 167.318 235.945 167.101 235.944C166.688 235.939 166.294 235.789 166.002 235.525C165.711 235.262 165.546 234.906 165.542 234.534ZM166.264 234.534C166.253 234.641 166.267 234.749 166.305 234.851C166.343 234.953 166.404 235.047 166.485 235.126C166.565 235.205 166.663 235.269 166.773 235.312C166.882 235.356 167 235.378 167.119 235.378C167.239 235.378 167.357 235.356 167.466 235.312C167.576 235.269 167.674 235.205 167.754 235.126C167.835 235.047 167.896 234.953 167.934 234.851C167.972 234.749 167.986 234.641 167.975 234.534C167.955 234.342 167.857 234.164 167.698 234.034C167.54 233.904 167.334 233.832 167.119 233.832C166.905 233.832 166.699 233.904 166.54 234.034C166.382 234.164 166.284 234.342 166.264 234.534Z" fill="#263238"/>
<path d="M169.709 235.165C169.701 234.669 169.857 234.183 170.157 233.768C170.279 233.576 170.455 233.416 170.666 233.302C170.877 233.188 171.116 233.125 171.362 233.118C171.608 233.125 171.848 233.188 172.059 233.302C172.27 233.416 172.445 233.576 172.568 233.768C172.851 234.189 173.001 234.672 173.001 235.165C173.001 235.657 172.851 236.14 172.568 236.562C172.441 236.751 172.265 236.909 172.055 237.022C171.845 237.135 171.607 237.2 171.362 237.211C171.116 237.204 170.877 237.141 170.666 237.027C170.455 236.914 170.279 236.753 170.157 236.562C169.857 236.146 169.701 235.66 169.709 235.165ZM172.279 235.165C172.286 234.799 172.179 234.439 171.969 234.125C171.912 234.023 171.825 233.936 171.719 233.873C171.612 233.81 171.489 233.774 171.362 233.768C171.234 233.778 171.111 233.816 171.003 233.878C170.895 233.94 170.805 234.025 170.741 234.125C170.538 234.441 170.431 234.8 170.431 235.165C170.431 235.53 170.538 235.888 170.741 236.204C170.806 236.304 170.896 236.388 171.004 236.45C171.112 236.512 171.235 236.551 171.362 236.562C171.488 236.552 171.61 236.514 171.715 236.452C171.821 236.389 171.908 236.304 171.969 236.204C172.179 235.891 172.286 235.531 172.279 235.165Z" fill="#263238"/>
<path d="M177.369 235.82C177.373 236.063 177.306 236.304 177.175 236.517C177.044 236.731 176.853 236.91 176.622 237.037C176.39 237.164 176.126 237.234 175.855 237.241C175.584 237.248 175.316 237.192 175.077 237.077C174.838 236.962 174.636 236.793 174.491 236.587C174.347 236.381 174.264 236.144 174.252 235.9C174.24 235.657 174.299 235.415 174.423 235.198C174.547 234.981 174.731 234.796 174.958 234.663C174.817 234.497 174.74 234.294 174.742 234.085C174.742 233.826 174.856 233.579 175.059 233.396C175.262 233.213 175.537 233.11 175.824 233.11C176.112 233.11 176.387 233.213 176.59 233.396C176.793 233.579 176.907 233.826 176.907 234.085C176.908 234.294 176.832 234.497 176.691 234.663C176.9 234.791 177.071 234.964 177.19 235.165C177.308 235.367 177.37 235.592 177.369 235.82ZM176.647 235.82C176.645 235.619 176.556 235.426 176.398 235.284C176.24 235.142 176.026 235.061 175.803 235.059C175.686 235.05 175.568 235.062 175.456 235.096C175.345 235.129 175.243 235.183 175.156 235.255C175.069 235.326 175 235.413 174.952 235.509C174.905 235.606 174.88 235.711 174.88 235.816C174.88 235.922 174.905 236.027 174.952 236.123C175 236.22 175.069 236.307 175.156 236.378C175.243 236.449 175.345 236.504 175.456 236.537C175.568 236.571 175.686 236.583 175.803 236.573C175.914 236.575 176.025 236.557 176.129 236.52C176.232 236.483 176.327 236.428 176.407 236.358C176.487 236.287 176.55 236.204 176.594 236.112C176.638 236.019 176.661 235.92 176.662 235.82H176.647ZM175.435 234.078C175.433 234.144 175.453 234.209 175.493 234.264C175.533 234.32 175.59 234.363 175.657 234.389C175.724 234.415 175.798 234.423 175.87 234.411C175.942 234.399 176.008 234.368 176.06 234.322C176.113 234.275 176.148 234.216 176.163 234.152C176.178 234.088 176.171 234.021 176.144 233.96C176.116 233.899 176.069 233.847 176.008 233.81C175.947 233.773 175.876 233.754 175.803 233.754C175.709 233.757 175.62 233.792 175.554 233.853C175.488 233.913 175.451 233.994 175.449 234.078H175.435Z" fill="#263238"/>
<path d="M113.94 241.467H111.601V254.643H113.94V241.467Z" fill="#263238"/>
<path d="M121.348 241.467H119.009V254.643H121.348V241.467Z" fill="#263238"/>
<path d="M127.576 241.467H125.237V254.643H127.576V241.467Z" fill="#263238"/>
<path d="M130.573 241.467H128.234V254.643H130.573V241.467Z" fill="#263238"/>
<path d="M117.197 241.467H116.612V254.643H117.197V241.467Z" fill="#263238"/>
<path d="M177.094 241.467H176.509V254.643H177.094V241.467Z" fill="#263238"/>
<path d="M124.515 241.467H123.931V254.643H124.515V241.467Z" fill="#263238"/>
<path d="M140.955 241.467H140.37V254.643H140.955V241.467Z" fill="#263238"/>
<path d="M118.337 241.467H117.752V254.643H118.337V241.467Z" fill="#263238"/>
<path d="M115.911 241.467H114.741V254.643H115.911V241.467Z" fill="#263238"/>
<path d="M145.951 241.467H143.612V254.643H145.951V241.467Z" fill="#263238"/>
<path d="M149.204 241.467H148.619V254.643H149.204V241.467Z" fill="#263238"/>
<path d="M150.348 241.467H149.763V254.643H150.348V241.467Z" fill="#263238"/>
<path d="M147.922 241.467H146.752V254.643H147.922V241.467Z" fill="#263238"/>
<path d="M152.186 241.467H151.017V254.643H152.186V241.467Z" fill="#263238"/>
<path d="M154.071 241.467H152.901V254.643H154.071V241.467Z" fill="#263238"/>
<path d="M139.634 241.467H137.295V254.643H139.634V241.467Z" fill="#263238"/>
<path d="M157.162 241.467H154.823V254.643H157.162V241.467Z" fill="#263238"/>
<path d="M135.482 241.467H134.898V254.643H135.482V241.467Z" fill="#263238"/>
<path d="M136.624 241.467H136.04V254.643H136.624V241.467Z" fill="#263238"/>
<path d="M134.196 241.467H133.026V254.643H134.196V241.467Z" fill="#263238"/>
<path d="M123.202 241.467H122.032V254.643H123.202V241.467Z" fill="#263238"/>
<path d="M132.372 241.467H131.202V254.643H132.372V241.467Z" fill="#263238"/>
<path d="M142.789 241.467H141.62V254.643H142.789V241.467Z" fill="#263238"/>
<path d="M158.476 241.467H157.891V254.643H158.476V241.467Z" fill="#263238"/>
<path d="M163.47 241.467H161.131V254.643H163.47V241.467Z" fill="#263238"/>
<path d="M170.884 241.467H168.545V254.643H170.884V241.467Z" fill="#263238"/>
<path d="M173.925 241.467H171.586V254.643H173.925V241.467Z" fill="#263238"/>
<path d="M166.727 241.467H166.142V254.643H166.727V241.467Z" fill="#263238"/>
<path d="M167.867 241.467H167.282V254.643H167.867V241.467Z" fill="#263238"/>
<path d="M165.449 241.467H164.279V254.643H165.449V241.467Z" fill="#263238"/>
<path d="M160.316 241.467H159.146V254.643H160.316V241.467Z" fill="#263238"/>
<path d="M175.839 241.467H174.669V254.643H175.839V241.467Z" fill="#263238"/>
<path d="M159.003 222.944H129.014V224.432H159.003V222.944Z" fill="#263238"/>
<path d="M293.546 255.767C293.55 255.869 293.527 255.97 293.48 256.063C293.432 256.156 293.361 256.237 293.272 256.3C288.219 260.322 278.047 261.712 267.521 261.712H253.4C263.926 261.712 274.069 260.322 279.166 256.3C279.252 256.235 279.32 256.154 279.366 256.061C279.411 255.969 279.431 255.868 279.426 255.767C279.382 254.11 274.509 250.687 268.871 246.717C258.54 239.46 244.405 229.513 244.405 220.079C244.405 210.984 250.744 196.203 258.064 179.077C268.662 154.291 280.689 126.198 278.372 104.907C276.3 85.8453 248.773 43.2316 223.47 25.7677C217.933 21.9475 213.305 20.0244 209.652 20.0244H223.766C227.419 20.0244 232.053 21.9735 237.59 25.7677C262.894 43.2316 290.413 85.8453 292.456 104.907C294.774 126.198 282.754 154.284 272.149 179.077C264.821 196.203 258.497 210.99 258.497 220.079C258.497 229.532 272.632 239.479 282.956 246.717C288.623 250.687 293.496 254.11 293.546 255.767Z" fill="#0082E0"/>
<g opacity="0.2">
<path d="M293.547 255.767C293.551 255.869 293.528 255.97 293.48 256.063C293.432 256.156 293.361 256.237 293.272 256.3C288.219 260.322 278.047 261.712 267.521 261.712H253.401C263.926 261.712 274.069 260.322 279.166 256.3C279.252 256.235 279.321 256.154 279.366 256.061C279.411 255.969 279.431 255.868 279.426 255.767C279.382 254.11 274.51 250.687 268.871 246.717C258.541 239.46 244.406 229.513 244.406 220.079C244.406 210.984 250.744 196.203 258.064 179.077C268.662 154.291 280.689 126.198 278.372 104.907C276.3 85.8453 248.773 43.2316 223.47 25.7677C217.933 21.9475 213.305 20.0244 209.652 20.0244H223.766C227.419 20.0244 232.053 21.9735 237.591 25.7677C262.894 43.2316 290.413 85.8453 292.456 104.907C294.774 126.198 282.754 154.284 272.149 179.077C264.821 196.203 258.497 210.99 258.497 220.079C258.497 229.532 272.633 239.479 282.956 246.717C288.623 250.687 293.496 254.11 293.547 255.767Z" fill="black"/>
</g>
<path d="M267.434 262.354H253.32C239.987 262.354 226.104 260.158 220.913 258.235C210.59 254.408 219.325 192.654 226.349 143.037C230.197 115.815 233.518 92.3022 232.226 87.6634C229.8 79.0224 220.986 66.2233 208.648 53.3788C198.339 42.6718 188.312 34.9209 184.825 34.9209H198.924C202.425 34.9209 212.453 42.6718 222.747 53.3788C235.085 66.2038 243.899 79.0224 246.325 87.6634C247.624 92.3022 244.304 115.815 240.449 143.037C233.431 192.654 224.689 254.408 235.012 258.235C240.225 260.158 254.1 262.354 267.434 262.354Z" fill="#0082E0"/>
<g opacity="0.1">
<path d="M267.433 262.354H253.32C239.986 262.354 226.104 260.158 220.913 258.235C210.589 254.408 219.325 192.654 226.349 143.037C230.197 115.815 233.518 92.3022 232.225 87.6634C229.8 79.0224 220.985 66.2233 208.648 53.3788C198.339 42.6718 188.311 34.9209 184.824 34.9209H198.923C202.425 34.9209 212.452 42.6718 222.747 53.3788C235.084 66.2038 243.899 79.0224 246.324 87.6634C247.624 92.3022 244.303 115.815 240.448 143.037C233.431 192.654 224.689 254.408 235.012 258.235C240.224 260.158 254.1 262.354 267.433 262.354Z" fill="black"/>
</g>
<path d="M193.43 36.1917H179.317C180.869 35.3444 182.549 34.7033 184.305 34.2881H198.419C196.663 34.7033 194.983 35.3444 193.43 36.1917Z" fill="#0082E0"/>
<g opacity="0.2">
<path d="M193.43 36.1917H179.317C180.869 35.3444 182.549 34.7033 184.305 34.2881H198.419C196.663 34.7033 194.983 35.3444 193.43 36.1917Z" fill="black"/>
</g>
<path d="M283.389 246.163C289.655 250.575 294.218 253.752 294.218 255.746C294.226 255.95 294.182 256.153 294.091 256.34C294 256.526 293.863 256.692 293.691 256.825C288.486 260.931 278.126 262.354 267.399 262.354C254.065 262.354 240.189 260.158 234.992 258.235C224.668 254.408 233.411 192.654 240.428 143.037C244.283 115.814 247.603 92.3019 246.304 87.6631C243.878 79.0221 235.064 66.2231 222.726 53.3785C212.424 42.6715 202.397 34.9206 198.903 34.9206C194.723 35.7133 189.171 39.3516 185.316 42.1583C181.252 45.2508 175.563 49.9546 175.469 50.0001L174.538 49.8702C174.733 49.7077 179.122 46.0824 180.552 44.9585C180.992 44.5881 182.551 43.3277 184.659 41.7749C194.304 34.4074 212.049 21.6343 221.651 19.5358C222.332 19.3903 223.03 19.3184 223.73 19.3214C227.541 19.3214 232.313 21.2705 237.966 25.1687C259.472 40.0078 290.666 82.0952 293.157 104.796C295.496 126.236 283.44 154.432 272.806 179.296C265.507 196.357 259.205 211.086 259.205 220.039C259.234 229.167 273.203 238.991 283.389 246.163ZM293.265 256.292C293.352 256.229 293.421 256.149 293.467 256.057C293.513 255.966 293.536 255.866 293.532 255.766C293.481 254.109 288.608 250.685 282.97 246.716C272.647 239.458 258.512 229.512 258.512 220.078C258.512 210.982 264.836 196.202 272.163 179.076C282.768 154.29 294.788 126.203 292.471 104.906C290.399 85.8439 262.872 43.2303 237.605 25.7599C232.068 21.9462 227.433 20.0231 223.787 20.0231C223.134 20.0221 222.482 20.0897 221.845 20.2245C214.799 21.7707 202.96 29.4112 193.445 36.2135C194.998 35.3662 196.678 34.7251 198.434 34.3099C207.183 34.2644 241.691 68.4385 247.033 87.5071C248.369 92.2824 245.192 114.729 241.178 143.147C234.558 189.925 225.498 253.986 235.302 257.624C240.464 259.534 254.303 261.73 267.536 261.73C278.061 261.73 288.204 260.34 293.294 256.312" fill="#0082E0"/>
<path d="M223.76 19.3215C223.059 19.3173 222.361 19.3915 221.681 19.5424C212.079 21.6474 194.334 34.4074 184.69 41.7685C182.582 43.3278 181.022 44.5882 180.582 44.952C179.138 46.076 174.756 49.7078 174.561 49.8702L166.439 44.952C166.873 44.5882 168.439 43.3278 170.54 41.7685C180.192 34.4074 197.93 21.6279 207.531 19.5424C208.211 19.3919 208.91 19.3177 209.61 19.3215H223.76Z" fill="#0082E0"/>
<g opacity="0.1">
<path d="M223.76 19.3215C223.059 19.3173 222.361 19.3915 221.681 19.5424C212.079 21.6474 194.334 34.4074 184.69 41.7685C182.582 43.3278 181.022 44.5882 180.582 44.952C179.138 46.076 174.756 49.7078 174.561 49.8702L166.439 44.952C166.873 44.5882 168.439 43.3278 170.54 41.7685C180.192 34.4074 197.93 21.6279 207.531 19.5424C208.211 19.3919 208.91 19.3177 209.61 19.3215H223.76Z" fill="black"/>
</g>
<path d="M131.426 110.361C123.99 118.931 128.762 128.592 126.235 134.764C124.69 138.532 118.013 143.437 117.392 147.576C116.374 154.372 122.871 155.567 122.301 159.271C121.507 164.507 114.143 165.449 114.627 173.687C115.11 181.926 126.806 188.656 150.557 186.746C174.308 184.836 185.339 174.863 184.646 167.905C183.953 160.947 175.723 160.109 174.062 155.132C173.001 151.955 177.26 148.83 176.17 142.788C175.08 136.746 168.179 136.018 166.121 131.093C164.064 126.169 164.273 113.428 154.585 108.62C144.897 103.812 135.093 106.132 131.426 110.361Z" fill="#263238"/>
<path d="M132.509 110.356C130.353 112.416 128.783 114.915 127.932 117.639C127.073 120.518 126.589 123.477 126.489 126.456C126.473 128.223 126.231 129.982 125.767 131.699C125.259 133.158 124.467 134.524 123.428 135.733C121.37 138.228 118.721 140.327 116.981 143.036C115.335 145.635 114.324 148.812 115.84 151.625C116.67 153.152 118.143 154.256 119.219 155.627C120.295 156.998 120.908 158.648 119.818 160.078C118.88 161.306 117.299 162.072 116.172 163.144C115.051 164.193 114.129 165.4 113.443 166.718C112.734 168.026 112.338 169.454 112.281 170.909C112.223 172.364 112.506 173.813 113.111 175.164C115.934 181.42 123.536 183.883 130.315 185.078C131.26 185.247 132.213 185.403 133.159 185.552C133.303 185.552 133.383 185.383 133.231 185.351C126.38 183.961 118.432 182.317 114.599 176.437C113.741 175.158 113.224 173.718 113.086 172.229C112.948 170.741 113.194 169.244 113.804 167.855C114.418 166.473 115.303 165.203 116.418 164.106C117.493 163.04 118.836 162.261 119.941 161.228C120.497 160.75 120.903 160.147 121.114 159.481C121.326 158.815 121.337 158.111 121.146 157.44C120.72 155.926 119.594 154.744 118.482 153.594C117.371 152.444 116.259 151.131 116.021 149.488C115.867 147.936 116.184 146.375 116.938 144.972C118.338 142.127 120.865 139.97 123.038 137.611C125.211 135.253 126.821 132.667 127.109 129.548C127.254 127.97 127.21 126.384 127.29 124.799C127.355 123.333 127.507 121.871 127.745 120.42C128.165 117.514 129.283 114.725 131.022 112.247C131.49 111.611 132.026 111.019 132.625 110.48C132.675 110.395 132.574 110.291 132.509 110.356Z" fill="#263238"/>
<path d="M184.543 162.76C184.015 161.702 183.233 160.761 182.255 160.006C181.244 159.233 180.089 158.635 179.006 157.946C177.92 157.351 177.042 156.493 176.472 155.471C175.88 154.171 176.212 152.794 176.653 151.521C177.181 150.209 177.603 148.865 177.916 147.499C178.271 145.444 178.088 143.343 177.381 141.364C176.674 139.384 175.463 137.581 173.844 136.097C172.79 135.07 171.679 134.148 170.588 133.108C169.421 132.005 168.424 130.766 167.621 129.424C165.867 126.462 164.9 123.187 163.333 120.153C161.701 117.05 159.725 114.103 157.435 111.356C157.377 111.291 157.269 111.356 157.327 111.447C159.366 113.934 161.115 116.603 162.546 119.413C163.911 122.076 164.827 124.877 166.011 127.599C166.565 128.944 167.267 130.237 168.105 131.458C168.93 132.577 169.868 133.625 170.906 134.59C172.992 136.604 175.122 138.585 176.169 141.236C177.204 143.842 177.293 146.677 176.422 149.331C175.7 151.631 174.472 154.23 176.082 156.478C177.447 158.368 179.908 159.207 181.742 160.649C182.716 161.45 183.492 162.427 184.018 163.517C184.544 164.606 184.809 165.783 184.796 166.97C184.854 173.052 179.02 177.138 172.956 178.535C172.918 178.544 172.885 178.566 172.865 178.596C172.844 178.626 172.837 178.662 172.846 178.697C172.854 178.731 172.877 178.761 172.91 178.781C172.943 178.801 172.983 178.808 173.021 178.801C178.313 177.781 183.612 174.637 185.099 169.706C185.815 167.403 185.618 164.947 184.543 162.76Z" fill="#263238"/>
<path d="M177.455 205.544H115.081L116.402 198.982L116.677 197.643L117.521 193.485L117.586 193.154L119.03 186.189L119.117 185.754L119.903 181.856V181.791L120.026 181.226L120.142 180.615C120.142 180.615 119.882 180.186 119.514 179.452C119.441 179.302 119.362 179.146 119.29 178.984C118.987 178.334 118.64 177.516 118.322 176.587C118.135 176.054 117.962 175.482 117.817 174.878C117.29 173.255 117.141 171.552 117.379 169.875C117.618 168.198 118.239 166.583 119.203 165.133C119.709 164.288 120.301 163.398 120.965 162.462C125.968 155.478 134.869 146.733 137.027 144.92C137.251 144.738 137.475 144.55 137.706 144.381C138.187 144.012 138.696 143.673 139.229 143.368C142.572 141.419 146.672 140.671 150.614 142.159C151.617 142.542 152.561 143.04 153.422 143.64C153.624 143.777 153.819 143.92 154.029 144.076C154.238 144.232 154.556 144.492 154.823 144.725C155.191 145.063 155.545 145.414 155.934 145.797C156 145.857 156.058 145.922 156.108 145.992C156.411 146.304 156.714 146.642 157.01 146.993C163.457 154.627 168.561 169.083 172.033 181.739C175.556 194.596 177.455 205.544 177.455 205.544Z" fill="#0082E0"/>
<path d="M137.69 144.407C137.69 144.407 135.236 152.203 137.654 152.729C140.073 153.256 145.884 149.364 153.414 143.634C153.443 143.66 146.223 136.643 137.69 144.407Z" fill="#D3766A"/>
<path d="M150.484 143.141C150.173 144.037 144.838 149.683 140.196 149.189C138.688 149.027 139.308 141.562 139.308 141.562L139.215 141.003L137.901 133.155L148.441 127.957L149.957 127.308C149.957 127.308 150.159 129.478 150.383 132.18C150.383 132.304 150.383 132.427 150.383 132.564C150.383 132.7 150.383 132.856 150.426 132.999C150.469 133.402 150.505 133.818 150.534 134.227C150.563 134.636 150.578 134.877 150.592 135.175C150.606 135.474 150.592 135.825 150.642 136.157C150.767 138.485 150.714 140.819 150.484 143.141Z" fill="#D3766A"/>
<path d="M150.383 132.167C149.344 134.281 147.807 136.165 145.879 137.691C143.95 139.217 141.676 140.347 139.215 141.003L137.901 133.155L148.441 127.957L149.957 127.308C149.957 127.308 150.159 129.465 150.383 132.167Z" fill="#263238"/>
<path d="M127.179 120.064C124.689 133.811 133.561 136.703 136.853 137.183C139.849 137.619 150.093 138.756 154.143 125.313C158.193 111.871 151.876 106.472 145.097 105.173C138.318 103.873 129.663 106.316 127.179 120.064Z" fill="#D3766A"/>
<path d="M131.468 117.953C131.824 117.933 132.178 117.896 132.529 117.842C132.91 117.845 133.282 117.738 133.591 117.537C133.673 117.458 133.723 117.356 133.734 117.247C133.744 117.139 133.714 117.031 133.648 116.939C133.489 116.773 133.283 116.649 133.052 116.579C132.821 116.509 132.573 116.497 132.334 116.543C131.837 116.564 131.368 116.755 131.021 117.076C130.945 117.152 130.895 117.247 130.878 117.348C130.861 117.45 130.877 117.553 130.925 117.646C130.972 117.74 131.049 117.818 131.146 117.873C131.242 117.927 131.354 117.955 131.468 117.953Z" fill="#263238"/>
<path d="M141.757 119.264C141.396 119.193 141.078 119.076 140.732 118.978C140.356 118.923 140.011 118.759 139.75 118.511C139.684 118.418 139.655 118.308 139.667 118.198C139.679 118.089 139.731 117.986 139.815 117.906C140.003 117.77 140.227 117.681 140.465 117.648C140.703 117.615 140.947 117.639 141.172 117.718C141.654 117.826 142.075 118.089 142.356 118.459C142.419 118.545 142.452 118.646 142.452 118.75C142.451 118.853 142.417 118.954 142.353 119.04C142.289 119.126 142.198 119.193 142.092 119.233C141.986 119.273 141.87 119.284 141.757 119.264Z" fill="#263238"/>
<path d="M139.346 122.591C139.346 122.559 139.419 122.643 139.411 122.682C139.26 123.624 139.26 124.722 140.169 125.132C140.169 125.132 140.169 125.19 140.169 125.184C139.007 124.917 139.007 123.462 139.346 122.591Z" fill="#263238"/>
<path d="M140.406 121.707C142.102 121.765 141.85 124.819 140.269 124.76C138.688 124.702 139.005 121.655 140.406 121.707Z" fill="#263238"/>
<path d="M141.057 121.915C141.339 122.104 141.606 122.428 141.96 122.487C142.313 122.545 142.682 122.253 143.006 121.961C143.006 121.961 143.064 121.961 143.057 122C143.021 122.591 142.718 123.169 142.017 123.208C141.317 123.247 140.956 122.701 140.848 122.097C140.826 121.987 140.942 121.837 141.057 121.915Z" fill="#263238"/>
<path d="M133.135 121.791C133.135 121.759 133.048 121.83 133.048 121.869C133.005 122.818 132.789 123.903 131.814 124.156C131.814 124.156 131.814 124.215 131.814 124.208C132.991 124.13 133.265 122.695 133.135 121.791Z" fill="#263238"/>
<path d="M132.269 120.746C130.587 120.532 130.226 123.572 131.786 123.774C133.345 123.975 133.684 120.967 132.269 120.746Z" fill="#263238"/>
<path d="M131.539 120.882C131.25 121.012 130.954 121.284 130.629 121.271C130.305 121.258 130.023 120.901 129.828 120.563C129.828 120.524 129.778 120.563 129.77 120.563C129.684 121.141 129.828 121.772 130.435 121.941C131.041 122.11 131.46 121.642 131.683 121.076C131.727 120.999 131.655 120.823 131.539 120.882Z" fill="#263238"/>
<path d="M137.996 129.802C137.765 130.043 137.541 130.361 137.159 130.452C136.768 130.471 136.378 130.418 136.011 130.296C136.007 130.294 136.003 130.292 135.998 130.291C135.994 130.29 135.989 130.289 135.984 130.29C135.979 130.291 135.975 130.292 135.971 130.294C135.967 130.296 135.963 130.299 135.96 130.303C135.957 130.306 135.955 130.31 135.954 130.314C135.953 130.318 135.953 130.323 135.953 130.327C135.954 130.331 135.956 130.335 135.958 130.339C135.961 130.342 135.964 130.346 135.968 130.348C136.136 130.521 136.352 130.651 136.595 130.724C136.837 130.797 137.096 130.811 137.346 130.764C137.551 130.694 137.728 130.572 137.857 130.413C137.985 130.254 138.059 130.064 138.068 129.867C138.112 129.783 138.025 129.763 137.996 129.802Z" fill="#263238"/>
<path d="M133.858 126.164C133.858 126.164 133.504 127.561 133.439 128.224C133.439 128.289 133.612 128.328 133.858 128.36C134.482 128.515 135.142 128.511 135.765 128.351C136.387 128.191 136.949 127.879 137.388 127.451C137.398 127.438 137.402 127.422 137.401 127.406C137.4 127.391 137.393 127.376 137.382 127.364C137.37 127.352 137.355 127.344 137.338 127.341C137.32 127.338 137.303 127.34 137.287 127.347C136.287 127.853 135.132 128.054 133.995 127.918C133.995 127.73 134.717 125.554 134.58 125.534C133.999 125.535 133.421 125.605 132.862 125.742C133.511 122.818 134.666 120.018 135.258 117.094C135.262 117.074 135.257 117.052 135.245 117.034C135.232 117.016 135.214 117.002 135.191 116.995C135.169 116.988 135.145 116.989 135.123 116.996C135.101 117.003 135.082 117.018 135.071 117.036C133.627 119.901 132.804 123.254 132.053 126.255C131.981 126.6 133.555 126.223 133.858 126.164Z" fill="#263238"/>
<path d="M134.002 128.115C134.36 128.694 134.877 129.182 135.504 129.531C135.855 129.708 136.258 129.783 136.659 129.746C137.532 129.661 137.662 128.973 137.604 128.355C137.571 128.03 137.496 127.71 137.381 127.4C136.369 127.959 135.184 128.209 134.002 128.115Z" fill="#263238"/>
<path d="M135.503 129.497C135.855 129.674 136.258 129.749 136.658 129.711C137.532 129.627 137.662 128.938 137.604 128.321C137.158 128.278 136.709 128.37 136.329 128.583C135.948 128.796 135.657 129.118 135.503 129.497Z" fill="#FF9ABB"/>
<path d="M152.563 125.3C149.062 124.91 149.827 119.946 149.827 119.946C149.827 119.946 145.9 119.147 146.463 113.352C146.463 113.352 144.037 116.6 138.522 116.672C137.359 116.672 141.568 114.482 141.568 114.482C141.568 114.482 136.443 117.659 128.162 115.236C127.577 115.061 129.505 106.296 136.573 104.347C143.64 102.398 149.95 105.53 153.509 109.798C153.509 109.798 158.093 112.397 158.028 116.633C157.963 120.869 153.928 125.449 152.563 125.3Z" fill="#263238"/>
<path d="M146.174 123.13C146.051 122.273 145.657 121.466 145.039 120.805C144.42 120.144 143.604 119.656 142.687 119.401C142.456 119.342 142.218 119.297 141.965 119.258C141.829 119.238 141.691 119.225 141.554 119.219H141.214C140.197 119.218 139.204 119.496 138.367 120.016C137.53 120.536 136.889 121.273 136.529 122.129C136.529 122.22 136.457 122.305 136.428 122.396C136.399 122.487 136.349 122.643 136.32 122.766C136.059 123.867 136.265 125.016 136.899 125.986C137.532 126.956 138.546 127.678 139.742 128.009C140.138 128.119 140.548 128.184 140.962 128.204C142.07 128.25 143.164 127.964 144.072 127.39C144.98 126.816 145.651 125.987 145.979 125.034C146.122 124.612 146.195 124.175 146.195 123.734C146.203 123.533 146.196 123.331 146.174 123.13ZM145.365 124.865C145.128 125.562 144.678 126.186 144.066 126.665C143.454 127.144 142.705 127.458 141.905 127.573C141.104 127.688 140.284 127.598 139.537 127.314C138.79 127.029 138.147 126.562 137.68 125.966C137.214 125.369 136.943 124.666 136.899 123.937C136.854 123.209 137.038 122.484 137.428 121.844C137.819 121.205 138.401 120.677 139.109 120.321C139.817 119.965 140.621 119.795 141.431 119.829C141.792 119.844 142.149 119.903 142.492 120.005C143.588 120.308 144.506 120.989 145.045 121.9C145.583 122.811 145.699 123.877 145.365 124.865Z" fill="#0082E0"/>
<path d="M133.765 120.226C133.682 119.896 133.556 119.575 133.389 119.271C133.09 118.713 132.625 118.238 132.047 117.901C131.73 117.722 131.376 117.603 131.007 117.55H130.884C130.377 117.506 129.865 117.569 129.388 117.733C128.912 117.898 128.485 118.16 128.141 118.498C127.896 118.714 127.678 118.954 127.491 119.213C127.425 119.294 127.365 119.379 127.311 119.466C126.931 120.071 126.672 120.73 126.546 121.415C126.387 122.242 126.437 123.09 126.69 123.897C126.69 123.988 126.748 124.073 126.777 124.164C126.845 124.333 126.927 124.498 127.022 124.657C127.101 124.807 127.19 124.953 127.289 125.093C127.522 125.429 127.829 125.717 128.192 125.941C128.555 126.165 128.965 126.318 129.397 126.392C129.504 126.41 129.613 126.421 129.722 126.425C130.209 126.432 130.692 126.345 131.138 126.169C131.584 125.993 131.983 125.732 132.306 125.405C132.73 125.017 133.077 124.566 133.332 124.073C133.592 123.58 133.774 123.058 133.873 122.52C133.873 122.416 133.873 122.312 133.873 122.221C133.873 122.13 133.873 122.085 133.873 122.02C133.873 121.851 133.873 121.688 133.873 121.526C133.896 121.09 133.86 120.654 133.765 120.226ZM133.194 122.429C133.181 122.528 133.159 122.626 133.129 122.721C133.134 122.745 133.134 122.769 133.129 122.793C133.063 123.054 132.974 123.311 132.862 123.559C132.805 123.683 132.747 123.8 132.682 123.91C131.96 125.21 130.725 125.989 129.491 125.807C128.963 125.698 128.48 125.457 128.097 125.113C127.714 124.768 127.447 124.333 127.325 123.858C127.073 123.109 127.019 122.317 127.166 121.545C127.28 120.941 127.507 120.359 127.838 119.824C128.043 119.497 128.298 119.197 128.596 118.934C128.856 118.679 129.172 118.476 129.523 118.338C129.875 118.199 130.255 118.128 130.639 118.128H130.884C131.302 118.208 131.693 118.377 132.024 118.622C132.354 118.866 132.614 119.178 132.783 119.531C133.147 120.224 133.311 120.988 133.259 121.753C133.272 121.979 133.262 122.205 133.231 122.429H133.194Z" fill="#0082E0"/>
<path d="M136.521 122.916L137.027 122.526C136.384 121.876 134.796 120.83 133.417 121.811L133.822 122.286C135.056 121.415 136.457 122.864 136.521 122.916Z" fill="#0082E0"/>
<path d="M158.251 127.346L158.887 127.164C158.793 126.898 157.912 124.566 156.483 124.111C155.053 123.656 146.181 123.13 145.798 123.11L145.755 123.708C148.325 123.87 155.234 124.358 156.266 124.683C157.298 125.007 158.02 126.703 158.251 127.346Z" fill="#0082E0"/>
<path d="M150.465 125.963C150.465 125.963 154.19 121.857 156.29 123.085C158.391 124.313 155.33 130.426 152.681 131.115C152.349 131.223 151.996 131.269 151.644 131.252C151.292 131.234 150.947 131.153 150.63 131.013C150.314 130.873 150.032 130.677 149.801 130.436C149.57 130.196 149.396 129.916 149.288 129.614L150.465 125.963Z" fill="#D3766A"/>
<path d="M155.365 124.813C155.401 124.813 155.408 124.865 155.365 124.878C153.509 125.411 152.434 126.828 151.647 128.361C151.765 128.209 151.918 128.081 152.096 127.986C152.274 127.892 152.472 127.833 152.677 127.813C152.882 127.793 153.09 127.814 153.286 127.872C153.482 127.931 153.661 128.027 153.813 128.153C153.856 128.185 153.813 128.25 153.762 128.237C153.453 128.126 153.113 128.104 152.789 128.172C152.465 128.241 152.172 128.397 151.95 128.621C151.585 129.001 151.265 129.414 150.997 129.855C150.903 129.992 150.614 129.894 150.694 129.732C150.691 129.719 150.691 129.706 150.694 129.693C150.86 127.627 152.881 124.865 155.365 124.813Z" fill="#263238"/>
<path d="M120.058 162.175L117.025 201.177L150.32 203.274L153.353 164.273L120.058 162.175Z" fill="#37474F"/>
<path d="M127.816 165.236L143.561 166.202L143.886 161.911L128.141 160.945L127.816 165.236Z" fill="#A6A6A6"/>
<path d="M131.714 161.17L133.656 161.287L133.801 159.312L138.515 159.598L138.363 161.58L140.305 161.697L140.58 158.091L131.96 157.564L131.714 161.17Z" fill="#A6A6A6"/>
<path d="M183.901 205.545H149.97C147.805 205.097 145.697 204.623 143.827 204.168C142.592 203.869 141.452 203.577 140.419 203.297L139.069 202.907C138.947 202.871 138.841 202.8 138.766 202.706C137.445 201.199 140.253 192.519 143.17 187.068C144.614 184.437 146.021 182.559 147.025 182.611C147.085 182.604 147.145 182.604 147.205 182.611C147.718 182.767 148.353 182.942 149.061 183.118L151.118 183.624C154.157 184.346 157.717 185.099 159.666 185.489C160.474 185.645 160.994 185.742 161.11 185.742C161.225 185.742 161.203 185.554 161.16 185.184C161.088 184.495 160.806 183.189 160.395 181.461C160.398 181.442 160.398 181.422 160.395 181.402C158.641 174.08 154.511 159.41 153.002 152.699C151.515 146.117 152.591 144.136 154.822 144.708C156.894 145.24 159.962 147.989 162.885 151.27C168.95 158.072 174.321 167.395 178.212 176.523C178.262 176.66 178.327 176.803 178.385 176.939C178.508 177.225 178.631 177.524 178.746 177.81C183.518 189.478 185.806 200.601 183.901 205.545Z" fill="#D3766A"/>
<path d="M116.966 175.539C115.414 177.359 116.922 179.301 116.922 179.301C115.736 179.704 114.743 180.467 114.114 181.458C113.096 183.251 115.775 185.473 115.775 185.473C114.64 186.121 113.747 187.06 113.212 188.17C112.432 189.976 114.786 192.562 114.786 192.562C114.108 193.675 113.897 194.971 114.194 196.213C115.132 199.5 120.619 201.073 124.098 202.099C127.578 203.126 138.537 203.113 140.601 203.301L148.131 183.264C148.131 183.264 133.989 174.656 129.708 173.967C126.098 173.395 118.713 173.512 116.966 175.539Z" fill="#D3766A"/>
<path d="M117.197 179.037C121.196 178.823 125.051 179.687 128.949 180.337C128.964 180.341 128.976 180.349 128.985 180.36C128.994 180.371 128.999 180.385 128.999 180.398C128.999 180.412 128.994 180.425 128.985 180.436C128.976 180.448 128.964 180.456 128.949 180.46C125.08 179.758 121.109 179.758 117.218 179.193C117.2 179.189 117.184 179.18 117.171 179.167C117.159 179.154 117.151 179.139 117.148 179.122C117.146 179.105 117.149 179.088 117.158 179.073C117.167 179.058 117.18 179.045 117.197 179.037Z" fill="#263238"/>
<path d="M115.946 185.242C116.859 185.272 117.765 185.409 118.639 185.652C119.577 185.859 120.516 186.08 121.447 186.301C123.317 186.769 125.172 187.269 127.006 187.828C127.092 187.828 127.071 187.964 127.006 187.945C125.143 187.484 123.273 187.048 121.389 186.646C120.451 186.451 119.505 186.262 118.559 186.08C117.654 185.953 116.768 185.735 115.917 185.431C115.903 185.417 115.893 185.401 115.887 185.384C115.881 185.367 115.879 185.348 115.882 185.33C115.885 185.312 115.892 185.295 115.903 185.28C115.914 185.265 115.929 185.252 115.946 185.242Z" fill="#263238"/>
<path d="M114.866 192.59C115.689 192.629 116.5 192.794 117.262 193.077C118.114 193.305 118.959 193.532 119.804 193.727C121.507 194.169 123.204 194.604 124.915 195.026C124.932 195.026 124.949 195.032 124.961 195.043C124.973 195.054 124.98 195.069 124.98 195.085C124.98 195.1 124.973 195.115 124.961 195.126C124.949 195.137 124.932 195.143 124.915 195.143C123.175 194.76 121.428 194.403 119.688 194C118.829 193.805 117.977 193.61 117.125 193.402C116.33 193.286 115.565 193.041 114.866 192.681C114.852 192.681 114.839 192.676 114.83 192.667C114.821 192.659 114.815 192.647 114.815 192.635C114.815 192.623 114.821 192.612 114.83 192.603C114.839 192.595 114.852 192.59 114.866 192.59Z" fill="#263238"/>
<path d="M184.913 205.545H145.828C144.709 205.305 144.002 205.136 143.735 205.071L143.612 205.039L143.836 204.168L144.11 203.044L148.131 186.912L149.07 183.144L149.113 182.981V182.936L151.141 183.378C154.282 184.027 159.992 185.216 160.252 185.041C160.301 185.001 160.336 184.949 160.353 184.892C160.357 184.868 160.357 184.844 160.353 184.82C160.743 183.15 157.61 172.872 155.047 163.38C153.827 158.884 152.737 154.557 152.21 151.426C151.38 146.501 152.145 144.188 153.993 144.091C155.949 143.98 159.126 146.384 162.916 150.834C169.369 158.667 174.644 167.233 178.603 176.309C178.661 176.452 178.726 176.595 178.791 176.738C178.899 176.998 179.015 177.245 179.116 177.505C182.112 184.619 184.357 192.324 184.891 199.997C185.093 202.109 185.31 204.006 184.913 205.545Z" fill="#0082E0"/>
<path d="M149.178 205.271C152.008 196.578 153.509 187.08 153.921 185.41C153.916 185.397 153.907 185.386 153.894 185.378C153.882 185.37 153.867 185.365 153.852 185.365C153.837 185.365 153.822 185.37 153.81 185.378C153.798 185.386 153.788 185.397 153.784 185.41C153.488 187.041 150.448 197.754 149.026 205.265C149.004 205.343 149.149 205.356 149.178 205.271Z" fill="#263238"/>
<path d="M172.049 187.683C171.11 187.361 170.144 187.102 169.162 186.91C168.252 186.695 167.342 186.462 166.433 186.26L165.256 185.981H165.372L166.996 185.896C167.537 185.864 168.079 185.792 168.62 185.799C168.707 185.799 168.714 185.669 168.62 185.675C168.079 185.675 167.545 185.675 167.003 185.643C166.462 185.61 165.884 185.643 165.321 185.643C164.758 185.643 164.339 185.643 163.877 185.643C162.997 185.442 162.116 185.247 161.235 185.065C160.99 183.454 160.513 181.816 160.123 180.244C159.733 178.672 159.279 176.924 158.809 175.267C158.34 173.611 157.864 172.019 157.329 170.427C157.062 169.621 155.698 164.71 155.221 163.417C155.221 163.339 155.077 163.365 155.099 163.462C155.322 164.762 156.716 169.79 156.911 170.609C157.055 171.2 157.199 171.791 157.351 172.389L157.279 172.292L156.326 170.921C155.669 169.998 155.064 169.046 154.514 168.069C154.471 167.984 154.326 168.069 154.37 168.134C154.868 169.154 155.344 170.18 155.886 171.181C156.16 171.681 156.441 172.175 156.745 172.656C157.02 173.143 157.351 173.602 157.734 174.026C157.856 174.514 157.972 175.001 158.095 175.488C158.499 177.119 158.91 178.737 159.315 180.38C159.683 181.875 159.979 183.408 160.419 184.889C158.614 184.526 156.81 184.194 154.976 183.856C154.052 183.681 153.121 183.512 152.197 183.35C151.273 183.187 150.146 183.09 149.179 182.856C149.092 182.856 149.049 182.96 149.128 182.973C150.11 183.148 151.085 183.499 152.016 183.726L154.745 184.376C156.672 184.824 158.6 185.279 160.52 185.675C162.441 186.072 164.361 186.436 166.296 186.786L169.183 187.3C170.114 187.506 171.059 187.652 172.013 187.735C172.025 187.732 172.036 187.725 172.042 187.715C172.049 187.706 172.052 187.694 172.049 187.683Z" fill="#263238"/>
<path d="M146.428 205.543H145.229C144.507 205.348 144.016 205.224 143.785 205.166C143.773 205.165 143.762 205.161 143.752 205.155C143.742 205.148 143.734 205.139 143.73 205.129C143.725 205.119 143.724 205.108 143.726 205.097C143.728 205.086 143.734 205.076 143.742 205.068C143.742 205.068 143.742 205.068 143.807 205.068C144.579 205.205 145.46 205.374 146.428 205.543Z" fill="#263238"/>
<path d="M41.9569 210.691C41.1744 213.258 40.6572 215.886 40.412 218.539C40.4915 218.669 40.477 219.156 40.412 219.02C40.412 219.455 39.6901 219.377 39.6901 218.948C39.6901 218.669 39.6901 218.396 39.6901 218.123C37.9864 216.22 35.5102 215.018 33.5105 213.361C31.9001 212.062 30.727 210.383 30.1247 208.514C28.4715 203.375 30.0236 197.924 28.0311 192.798C26.313 188.373 23.2304 184.527 20.617 180.519C17.8665 176.283 15.8307 171.832 15.6286 166.875C15.4625 163.074 15.9679 158.007 19.1876 155.18C22.5951 152.159 26.8183 154.427 29.4317 157.13C37.0046 164.926 40.5059 174.827 41.9208 184.93C42.7005 190.517 43.5091 196.144 43.3214 201.79C43.1941 204.79 42.7371 207.771 41.9569 210.691Z" fill="#0082E0"/>
<path d="M40.4495 220.59C40.8584 215.323 40.7884 210.034 40.2402 204.776C40.2402 204.776 40.2402 204.776 40.2402 204.718C40.334 200.436 40.7094 196.174 40.5289 191.886C40.2959 187.252 39.5927 182.646 38.4282 178.126C38.4282 178.074 38.3271 178.087 38.3415 178.126C39.267 182.567 39.8196 187.065 39.9947 191.581C40.0886 194.004 40.0741 196.421 39.9298 198.838C39.8864 199.624 39.7998 200.417 39.7421 201.21C37.763 189.192 32.9375 177.697 25.5924 167.503C25.4914 167.367 25.217 167.503 25.3109 167.659C30.5701 175.402 34.4665 183.831 36.8616 192.647C33.252 186.578 27.7293 181.602 23.6505 175.754C23.6505 175.722 23.5638 175.754 23.5855 175.787C27.2529 182.284 33.3025 187.397 37.1576 193.797C37.8266 196.395 38.3704 199.022 38.7891 201.677C39.3322 205.309 39.6239 208.967 39.6626 212.631C37.4463 208.902 35.1434 205.335 33.3314 201.392C33.2809 201.288 33.1148 201.392 33.1581 201.463C34.6958 205.563 36.7677 209.974 39.6554 213.469C39.6554 216.068 39.5832 218.667 39.4172 221.266C38.9624 228.179 37.6485 235 37.0421 241.894C37.0451 241.932 37.063 241.968 37.0925 241.995C37.1221 242.023 37.1615 242.04 37.2038 242.044C37.246 242.048 37.2885 242.038 37.3236 242.016C37.3587 241.995 37.3843 241.963 37.3958 241.926C38.9489 234.884 39.9692 227.756 40.4495 220.59Z" fill="#263238"/>
<path d="M32.2851 167.262C32.2851 167.21 32.184 167.262 32.2057 167.295C33.6062 170.79 34.3714 174.331 35.411 177.911C35.4177 177.945 35.4393 177.976 35.4712 177.996C35.503 178.016 35.5424 178.024 35.5807 178.018C35.6189 178.012 35.653 177.993 35.6753 177.964C35.6977 177.935 35.7065 177.9 35.6998 177.865C35.2883 174.24 33.8517 170.608 32.2851 167.262Z" fill="#263238"/>
<path d="M67.9249 181.902C66.9882 183.948 65.9104 185.94 64.6979 187.866C62.1712 191.998 59.529 195.786 59.0525 200.594C58.8432 202.738 58.7638 204.895 58.0418 206.967C57.3749 208.745 56.4241 210.426 55.2191 211.957C52.4758 215.543 49.054 218.642 46.5561 222.352C43.9178 226.238 41.9693 230.471 40.7808 234.898C40.7158 235.138 40.2899 235.073 40.3548 234.833C40.3626 234.814 40.3626 234.793 40.3548 234.774C40.3515 234.767 40.3497 234.759 40.3497 234.751C40.3497 234.744 40.3515 234.736 40.3548 234.729C39.9506 224.418 40.8674 214.023 44.3615 204.147C45.9069 199.804 47.7612 195.555 49.913 191.426C51.7828 187.84 54.1218 184.397 57.4066 181.72C59.5362 179.992 64.1637 176.717 67.1958 178.471C68.6035 179.297 68.4952 180.615 67.9249 181.902Z" fill="#0082E0"/>
<path d="M56.8955 200.882C54.3829 203.78 52.2058 206.902 50.3982 210.198C50.3982 210.244 50.4487 210.289 50.4776 210.244C52.6434 207.151 54.8091 204.039 57.011 200.94C57.0326 200.882 56.9388 200.823 56.8955 200.882Z" fill="#263238"/>
<path d="M8.12271 191.68C9.60986 193.98 11.3064 196.742 10.6639 199.509C10.2596 201.257 8.83741 202.68 8.58474 204.46C8.0072 208.397 12.3676 211.002 15.5224 212.861C23.3913 217.506 34.184 221.651 35.6134 231.137C35.6639 231.474 36.3353 231.39 36.2631 231.059C36.2665 231.039 36.2665 231.02 36.2631 231C36.2631 231 36.3064 230.968 36.3064 230.942C37.3357 226.152 37.2842 221.225 36.1548 216.453C34.9853 211.561 32.6102 207.169 29.8164 202.875C25.0806 195.605 20.0632 188.159 12.9018 182.591C10.9238 181.051 6.86657 178.284 5.28557 181.76C3.70457 185.235 6.30348 188.874 8.12271 191.68Z" fill="#0082E0"/>
<path d="M15.3247 207.09C20.5369 212.171 28.8318 215.023 33.3221 220.734C30.8131 212.069 26.0749 204.057 19.4901 197.345C19.457 197.309 19.4399 197.264 19.4424 197.218C19.4448 197.172 19.4665 197.129 19.5032 197.097C19.5398 197.064 19.5887 197.046 19.6398 197.045C19.691 197.044 19.7407 197.06 19.7789 197.091C24.5749 201.284 28.413 206.281 31.0769 211.8C29.8394 207.941 28.2107 204.191 26.2112 200.6C26.139 200.463 26.3556 200.346 26.4422 200.476C28.9201 204.399 30.6915 208.651 31.6905 213.074C37.6031 225.964 38.1878 241.076 36.9172 254.654C36.9172 254.843 36.5707 254.849 36.5707 254.654C36.9172 243.947 36.7223 233.052 33.8707 222.598C33.813 222.377 33.748 222.163 33.683 221.949C28.7957 215.822 20.5441 212.983 15.2308 207.161C15.1803 207.116 15.2669 207.032 15.3247 207.09Z" fill="#263238"/>
<path d="M14.1144 202.725C16.8577 204.986 19.5505 207.273 22.2937 209.56C22.2937 209.56 22.2937 209.625 22.2504 209.605C19.1516 207.719 16.3598 205.454 13.9556 202.875C13.8617 202.771 14.0061 202.634 14.1144 202.725Z" fill="#263238"/>
<path d="M13.6794 192.927C16.1014 196.501 18.8417 199.893 21.8732 203.069C21.9165 203.114 21.8732 203.173 21.8082 203.134C18.4062 200.225 15.605 196.795 13.535 193.005C13.4917 192.921 13.6217 192.843 13.6794 192.927Z" fill="#263238"/>
<path d="M26.0105 264.244H49.9926L46.7657 235.202H29.7067L26.0105 264.244Z" fill="#455A64"/>
<path d="M29.1018 239.925H47.2942L46.7672 235.202H29.701L29.1018 239.925Z" fill="#263238"/>
<path d="M26.7621 236.625H49.2427V231.986H26.7621V236.625Z" fill="#455A64"/>
</svg>
